<?xml version="1.0" encoding="UTF-8" standalone="no"?>
<svg
   xmlns:dc="http://purl.org/dc/elements/1.1/"
   xmlns:cc="http://creativecommons.org/ns#"
   xmlns:rdf="http://www.w3.org/1999/02/22-rdf-syntax-ns#"
   xmlns:svg="http://www.w3.org/2000/svg"
   xmlns="http://www.w3.org/2000/svg"
   xmlns:sodipodi="http://sodipodi.sourceforge.net/DTD/sodipodi-0.dtd"
   xmlns:inkscape="http://www.inkscape.org/namespaces/inkscape"
   inkscape:version="1.0 (4035a4fb49, 2020-05-01)"
   sodipodi:docname="add.svg"
   id="svg6"
   version="1.1"
   width="24"
   viewBox="0 0 24 24"
   height="24">
  <metadata
     id="metadata12">
    <rdf:RDF>
      <cc:Work
         rdf:about="">
        <dc:format>image/svg+xml</dc:format>
        <dc:type
           rdf:resource="http://purl.org/dc/dcmitype/StillImage" />
      </cc:Work>
    </rdf:RDF>
  </metadata>
  <defs
     id="defs10" />
  <sodipodi:namedview
     inkscape:current-layer="svg6"
     inkscape:window-maximized="1"
     inkscape:window-y="0"
     inkscape:window-x="0"
     inkscape:cy="8.5878649"
     inkscape:cx="7.6105099"
     inkscape:zoom="11.6875"
     showgrid="false"
     id="namedview8"
     inkscape:window-height="709"
     inkscape:window-width="1366"
     inkscape:pageshadow="2"
     inkscape:pageopacity="0"
     guidetolerance="10"
     gridtolerance="10"
     objecttolerance="10"
     borderopacity="1"
     bordercolor="#666666"
     pagecolor="#ffffff" />
  <path
     id="path2"
     fill="none"
     d="M0 0h24v24H0V0z" />
  <path
     style="stroke-width:1.42857"
     id="path4"
     d="m 20.571429,13.428571 h -7.142858 v 7.142858 C 13.428571,21.357143 12.785714,22 12,22 11.214286,22 10.571429,21.357143 10.571429,20.571429 V 13.428571 H 3.4285714 C 2.6428571,13.428571 2,12.785714 2,12 2,11.214286 2.6428571,10.571429 3.4285714,10.571429 H 10.571429 V 3.4285714 C 10.571429,2.6428571 11.214286,2 12,2 c 0.785714,0 1.428571,0.6428571 1.428571,1.4285714 v 7.1428576 h 7.142858 C 21.357143,10.571429 22,11.214286 22,12 c 0,0.785714 -0.642857,1.428571 -1.428571,1.428571 z" />
</svg>
