<?xml version="1.0" encoding="UTF-8" standalone="no"?>
<svg
   xmlns:dc="http://purl.org/dc/elements/1.1/"
   xmlns:cc="http://creativecommons.org/ns#"
   xmlns:rdf="http://www.w3.org/1999/02/22-rdf-syntax-ns#"
   xmlns:svg="http://www.w3.org/2000/svg"
   xmlns="http://www.w3.org/2000/svg"
   xmlns:sodipodi="http://sodipodi.sourceforge.net/DTD/sodipodi-0.dtd"
   xmlns:inkscape="http://www.inkscape.org/namespaces/inkscape"
   height="24"
   width="24"
   inkscape:version="1.0 (4035a4fb49, 2020-05-01)"
   sodipodi:docname="arrow.svg"
   id="svg4"
   version="1.1"
   viewBox="0 0 24 24"
   role="img"
   class="svg-inline--fa fa-arrow-circle-right fa-w-16"
   data-icon="arrow-circle-right"
   data-prefix="fas"
   focusable="false"
   aria-hidden="true">
  <metadata
     id="metadata10">
    <rdf:RDF>
      <cc:Work
         rdf:about="">
        <dc:format>image/svg+xml</dc:format>
        <dc:type
           rdf:resource="http://purl.org/dc/dcmitype/StillImage" />
        <dc:title></dc:title>
      </cc:Work>
    </rdf:RDF>
  </metadata>
  <defs
     id="defs8" />
  <sodipodi:namedview
     inkscape:document-rotation="0"
     inkscape:pagecheckerboard="true"
     inkscape:current-layer="svg4"
     inkscape:window-maximized="1"
     inkscape:window-y="0"
     inkscape:window-x="0"
     inkscape:cy="19.231007"
     inkscape:cx="29.630134"
     inkscape:zoom="10.429825"
     showgrid="false"
     id="namedview6"
     inkscape:window-height="709"
     inkscape:window-width="1366"
     inkscape:pageshadow="2"
     inkscape:pageopacity="0"
     guidetolerance="10"
     gridtolerance="10"
     objecttolerance="10"
     borderopacity="1"
     bordercolor="#666666"
     pagecolor="#ffffff" />
  <path
     inkscape:connector-curvature="0"
     style="fill:#000000;fill-opacity:1;stroke-width:0.04032258"
     id="path2"
     d="M 22,12 C 22,17.524193 17.524193,22 12,22 6.4758066,22 2,17.524193 2,12 2,6.475807 6.4758066,2 12,2 17.524193,2 22,6.475807 22,12 Z m -5.790322,-1.165323 -2.919356,3.044355 V 6.516129 c 0,-0.53629 -0.431451,-0.967742 -0.967741,-0.967742 h -0.645162 c -0.53629,0 -0.967741,0.431452 -0.967741,0.967742 v 7.362903 L 7.7903225,10.834677 c -0.375,-0.391129 -1,-0.399193 -1.3830644,-0.01613 l -0.4395162,0.443549 c -0.3790322,0.379032 -0.3790322,0.991935 0,1.366935 l 5.3467741,5.350807 c 0.379032,0.379032 0.991936,0.379032 1.366936,0 L 18.03629,12.62903 c 0.379032,-0.379032 0.379032,-0.991935 0,-1.366935 l -0.439516,-0.443549 c -0.387097,-0.383064 -1.012097,-0.375 -1.387097,0.01613 z" />
</svg>
