<?xml version="1.0" encoding="UTF-8" standalone="no"?>
<svg
   xmlns:dc="http://purl.org/dc/elements/1.1/"
   xmlns:cc="http://creativecommons.org/ns#"
   xmlns:rdf="http://www.w3.org/1999/02/22-rdf-syntax-ns#"
   xmlns:svg="http://www.w3.org/2000/svg"
   xmlns="http://www.w3.org/2000/svg"
   xmlns:sodipodi="http://sodipodi.sourceforge.net/DTD/sodipodi-0.dtd"
   xmlns:inkscape="http://www.inkscape.org/namespaces/inkscape"
   inkscape:version="1.0 (4035a4fb49, 2020-05-01)"
   height="24"
   width="24"
   sodipodi:docname="balance.svg"
   id="svg4"
   version="1.1"
   viewBox="0 0 24 24"
   role="img"
   class="svg-inline--fa fa-balance-scale-right fa-w-20"
   data-icon="balance-scale-right"
   data-prefix="fas"
   focusable="false"
   aria-hidden="true">
  <metadata
     id="metadata10">
    <rdf:RDF>
      <cc:Work
         rdf:about="">
        <dc:format>image/svg+xml</dc:format>
        <dc:type
           rdf:resource="http://purl.org/dc/dcmitype/StillImage" />
        <dc:title />
      </cc:Work>
    </rdf:RDF>
  </metadata>
  <defs
     id="defs8" />
  <sodipodi:namedview
     inkscape:document-rotation="0"
     inkscape:current-layer="svg4"
     inkscape:window-maximized="1"
     inkscape:window-y="0"
     inkscape:window-x="0"
     inkscape:cy="9.2457822"
     inkscape:cx="16.894869"
     inkscape:zoom="14.75"
     showgrid="false"
     id="namedview6"
     inkscape:window-height="709"
     inkscape:window-width="1366"
     inkscape:pageshadow="2"
     inkscape:pageopacity="0"
     guidetolerance="10"
     gridtolerance="10"
     objecttolerance="10"
     borderopacity="1"
     bordercolor="#666666"
     pagecolor="#ffffff" />
  <path
     style="fill:currentColor;stroke-width:0.03125"
     inkscape:connector-curvature="0"
     id="path2"
     d="m 5,18.500067 v 1 c 0,0.27625 0.22375,0.5 0.5,0.5 h 7 c 0.27625,0 0.5,-0.22375 0.5,-0.5 V 8.7891293 c 0.1425,-0.062505 0.27875,-0.1359374 0.405937,-0.2225 L 17.845,10.055067 c 0.261875,0.08781 0.545312,-0.05344 0.633125,-0.3150002 l 0.317812,-0.9481254 c 0.08781,-0.2618748 -0.05344,-0.5453121 -0.315,-0.6331243 l -4.0125,-1.345313 c 0.01312,-0.10375 0.03156,-0.20625 0.03156,-0.3134375 0,-1.3806249 -1.119375,-2.5 -2.5,-2.5 -0.927812,0 -1.728126,0.51125 -2.1596877,1.2615626 L 6.155,4.0260041 c -0.261875,-0.087812 -0.5453125,0.053438 -0.633125,0.315 L 5.2040625,5.2891292 c -0.087812,0.2618749 0.053437,0.5453124 0.315,0.6331249 l 4.125,1.3831251 c 0.2275,0.6640622 0.7175005,1.2043752 1.3556255,1.4834379 V 18.000067 H 5.5 c -0.27625,0 -0.5,0.22375 -0.5,0.5 z m -3,-5 c 0,1.380625 1.7909375,2.5 4,2.5 2.2090625,0 4,-1.119375 4,-2.5 h -6.25e-4 c 0,-0.489687 0.065,-0.226563 -2.6578125,-5.6721882 -0.5525,-1.1049996 -2.131875,-1.1028122 -2.6834375,0 -2.699375,5.3993762 -2.6575,5.1665642 -2.6575,5.6721882 z m 1.75,-0.5 L 6,8.5000666 8.25,13.000067 Z m 10.250625,4.5 H 14 c 0,1.380625 1.790937,2.5 4,2.5 2.209063,0 4,-1.119375 4,-2.5 h -6.25e-4 c 0,-0.489687 0.065,-0.226563 -2.657812,-5.672187 -0.5525,-1.105 -2.131875,-1.102813 -2.683438,0 -2.699375,5.399375 -2.6575,5.166563 -2.6575,5.672187 z m 1.749375,-0.5 2.25,-4.5 2.25,4.5 z" />
</svg>
