<?xml version="1.0" encoding="UTF-8" standalone="no"?>
<svg
   xmlns:dc="http://purl.org/dc/elements/1.1/"
   xmlns:cc="http://creativecommons.org/ns#"
   xmlns:rdf="http://www.w3.org/1999/02/22-rdf-syntax-ns#"
   xmlns:svg="http://www.w3.org/2000/svg"
   xmlns="http://www.w3.org/2000/svg"
   xmlns:sodipodi="http://sodipodi.sourceforge.net/DTD/sodipodi-0.dtd"
   xmlns:inkscape="http://www.inkscape.org/namespaces/inkscape"
   inkscape:version="1.0 (4035a4fb49, 2020-05-01)"
   sodipodi:docname="bus.svg"
   id="svg6"
   version="1.1"
   width="24"
   viewBox="0 0 24 24"
   height="24">
  <metadata
     id="metadata12">
    <rdf:RDF>
      <cc:Work
         rdf:about="">
        <dc:format>image/svg+xml</dc:format>
        <dc:type
           rdf:resource="http://purl.org/dc/dcmitype/StillImage" />
      </cc:Work>
    </rdf:RDF>
  </metadata>
  <defs
     id="defs10" />
  <sodipodi:namedview
     inkscape:document-rotation="0"
     inkscape:current-layer="svg6"
     inkscape:window-maximized="1"
     inkscape:window-y="0"
     inkscape:window-x="0"
     inkscape:cy="12"
     inkscape:cx="10.220339"
     inkscape:zoom="9.8333333"
     showgrid="false"
     id="namedview8"
     inkscape:window-height="709"
     inkscape:window-width="1366"
     inkscape:pageshadow="2"
     inkscape:pageopacity="0"
     guidetolerance="10"
     gridtolerance="10"
     objecttolerance="10"
     borderopacity="1"
     bordercolor="#666666"
     pagecolor="#ffffff" />
  <path
     id="path2"
     fill="none"
     d="M0 0h24v24H0V0z" />
  <path
     style="stroke-width:1.05263"
     inkscape:connector-curvature="0"
     id="path4"
     d="m 3.5789475,16.736842 c 0,0.926316 0.4105263,1.757895 1.0526316,2.336842 v 1.347369 C 4.6315791,21.294737 5.3368422,22 6.2105264,22 7.0842107,22 7.7894738,21.294737 7.7894738,20.421053 v -0.526316 h 8.4210522 v 0.526316 c 0,0.863158 0.705263,1.578947 1.578947,1.578947 0.863158,0 1.578948,-0.705263 1.578948,-1.578947 v -1.347369 c 0.642105,-0.578947 1.052632,-1.410526 1.052632,-2.336842 V 6.2105263 C 20.421052,2.5263158 16.652631,2 12,2 7.3473686,2 3.5789475,2.5263158 3.5789475,6.2105263 Z m 3.6842105,1.052632 c -0.8736842,0 -1.5789473,-0.705263 -1.5789473,-1.578948 0,-0.873684 0.7052631,-1.578947 1.5789473,-1.578947 0.8736842,0 1.5789474,0.705263 1.5789474,1.578947 0,0.873685 -0.7052632,1.578948 -1.5789474,1.578948 z m 9.473684,0 c -0.873684,0 -1.578948,-0.705263 -1.578948,-1.578948 0,-0.873684 0.705264,-1.578947 1.578948,-1.578947 0.873684,0 1.578947,0.705263 1.578947,1.578947 0,0.873685 -0.705263,1.578948 -1.578947,1.578948 z m 1.578947,-6.31579 H 5.6842107 V 6.2105263 H 18.315789 Z" />
</svg>
