<?xml version="1.0" encoding="UTF-8" standalone="no"?>
<svg
   xmlns:dc="http://purl.org/dc/elements/1.1/"
   xmlns:cc="http://creativecommons.org/ns#"
   xmlns:rdf="http://www.w3.org/1999/02/22-rdf-syntax-ns#"
   xmlns:svg="http://www.w3.org/2000/svg"
   xmlns="http://www.w3.org/2000/svg"
   xmlns:sodipodi="http://sodipodi.sourceforge.net/DTD/sodipodi-0.dtd"
   xmlns:inkscape="http://www.inkscape.org/namespaces/inkscape"
   inkscape:version="1.0 (4035a4fb49, 2020-05-01)"
   sodipodi:docname="dark-mode.svg"
   id="svg6"
   version="1.1"
   width="24"
   viewBox="0 0 24 24"
   height="24">
  <metadata
     id="metadata12">
    <rdf:RDF>
      <cc:Work
         rdf:about="">
        <dc:format>image/svg+xml</dc:format>
        <dc:type
           rdf:resource="http://purl.org/dc/dcmitype/StillImage" />
      </cc:Work>
    </rdf:RDF>
  </metadata>
  <defs
     id="defs10" />
  <sodipodi:namedview
     inkscape:current-layer="svg6"
     inkscape:window-maximized="1"
     inkscape:window-y="0"
     inkscape:window-x="0"
     inkscape:cy="10.998799"
     inkscape:cx="10.839316"
     inkscape:zoom="16.528621"
     showgrid="false"
     id="namedview8"
     inkscape:window-height="709"
     inkscape:window-width="1366"
     inkscape:pageshadow="2"
     inkscape:pageopacity="0"
     guidetolerance="10"
     gridtolerance="10"
     objecttolerance="10"
     borderopacity="1"
     bordercolor="#666666"
     pagecolor="#ffffff" />
  <path
     id="path2"
     fill="none"
     d="M0 0h24v24H0V0z" />
  <path
     style="stroke-width:0.918063"
     id="path4"
     d="m 19.344503,15.038788 2.386964,-2.386963 c 0.358044,-0.358045 0.358044,-0.936424 0,-1.294469 L 19.344503,8.9612118 v -3.387652 c 0,-0.5049346 -0.413128,-0.9180629 -0.918063,-0.9180629 H 15.038788 L 12.651825,2.2685334 c -0.358045,-0.3580445 -0.936424,-0.3580445 -1.294469,0 L 8.9612118,4.6554969 h -3.387652 c -0.5049346,0 -0.9180629,0.4131283 -0.9180629,0.9180629 v 3.387652 L 2.2685334,11.348175 c -0.3580445,0.358045 -0.3580445,0.936424 0,1.294469 l 2.3869635,2.386964 v 3.396832 c 0,0.504935 0.4131283,0.918063 0.9180629,0.918063 h 3.387652 l 2.3869632,2.386964 c 0.358045,0.358044 0.936424,0.358044 1.294469,0 l 2.386964,-2.386964 h 3.396832 c 0.504935,0 0.918063,-0.413128 0.918063,-0.918063 z M 12,16.498508 V 7.5014919 C 12,6.9414735 12.504935,6.482442 13.055772,6.5926096 15.589626,7.0883636 17.508377,9.3192564 17.508377,12 c 0,2.680744 -1.918751,4.911636 -4.452605,5.40739 C 12.504935,17.517558 12,17.058527 12,16.498508 Z" />
</svg>
