<?xml version="1.0" encoding="UTF-8" standalone="no"?>
<svg
   xmlns:dc="http://purl.org/dc/elements/1.1/"
   xmlns:cc="http://creativecommons.org/ns#"
   xmlns:rdf="http://www.w3.org/1999/02/22-rdf-syntax-ns#"
   xmlns:svg="http://www.w3.org/2000/svg"
   xmlns="http://www.w3.org/2000/svg"
   xmlns:sodipodi="http://sodipodi.sourceforge.net/DTD/sodipodi-0.dtd"
   xmlns:inkscape="http://www.inkscape.org/namespaces/inkscape"
   inkscape:version="1.0 (4035a4fb49, 2020-05-01)"
   sodipodi:docname="food.svg"
   id="svg6"
   version="1.1"
   width="24"
   viewBox="0 0 24 24"
   height="24">
  <metadata
     id="metadata12">
    <rdf:RDF>
      <cc:Work
         rdf:about="">
        <dc:format>image/svg+xml</dc:format>
        <dc:type
           rdf:resource="http://purl.org/dc/dcmitype/StillImage" />
      </cc:Work>
    </rdf:RDF>
  </metadata>
  <defs
     id="defs10" />
  <sodipodi:namedview
     inkscape:current-layer="svg6"
     inkscape:window-maximized="1"
     inkscape:window-y="0"
     inkscape:window-x="0"
     inkscape:cy="12"
     inkscape:cx="12"
     inkscape:zoom="23.375"
     showgrid="false"
     id="namedview8"
     inkscape:window-height="709"
     inkscape:window-width="1366"
     inkscape:pageshadow="2"
     inkscape:pageopacity="0"
     guidetolerance="10"
     gridtolerance="10"
     objecttolerance="10"
     borderopacity="1"
     bordercolor="#666666"
     pagecolor="#ffffff" />
  <path
     id="path2"
     fill="none"
     d="M0 0h24v24H0V0z" />
  <path
     style="stroke-width:1.04599"
     id="path4"
     d="M 7.6062492,13.393338 10.566393,10.433193 4.0917319,3.9689919 C 3.589658,3.466918 2.7214886,3.6028964 2.4076924,4.2514085 1.6650414,5.8099295 1.9369981,7.7240863 3.2235625,9.0211105 Z m 7.0917938,-1.893237 c 1.600361,0.74265 3.849233,0.219657 5.512353,-1.443463 1.997836,-1.9978358 2.384851,-4.863841 0.84725,-6.4014423 -1.527142,-1.5271414 -4.393147,-1.150586 -6.401442,0.8472497 -1.66312,1.6631198 -2.186114,3.9119925 -1.443463,5.5123536 l -9.4766448,9.476644 c -0.407935,0.407935 -0.407935,1.066907 0,1.474843 0.4079351,0.407935 1.0669071,0.407935 1.4748421,0 l 6.4746617,-6.453742 6.464201,6.464201 c 0.407935,0.407935 1.066907,0.407935 1.474842,0 0.407935,-0.407935 0.407935,-1.066907 0,-1.474842 l -6.464201,-6.464201 z" />
</svg>
