<?xml version="1.0" encoding="UTF-8" standalone="no"?>
<svg
   xmlns:dc="http://purl.org/dc/elements/1.1/"
   xmlns:cc="http://creativecommons.org/ns#"
   xmlns:rdf="http://www.w3.org/1999/02/22-rdf-syntax-ns#"
   xmlns:svg="http://www.w3.org/2000/svg"
   xmlns="http://www.w3.org/2000/svg"
   xmlns:sodipodi="http://sodipodi.sourceforge.net/DTD/sodipodi-0.dtd"
   xmlns:inkscape="http://www.inkscape.org/namespaces/inkscape"
   inkscape:version="1.0 (4035a4fb49, 2020-05-01)"
   sodipodi:docname="gps-location.svg"
   id="svg6"
   version="1.1"
   width="24"
   viewBox="0 0 24 24"
   height="24">
  <metadata
     id="metadata12">
    <rdf:RDF>
      <cc:Work
         rdf:about="">
        <dc:format>image/svg+xml</dc:format>
        <dc:type
           rdf:resource="http://purl.org/dc/dcmitype/StillImage" />
      </cc:Work>
    </rdf:RDF>
  </metadata>
  <defs
     id="defs10" />
  <sodipodi:namedview
     inkscape:current-layer="svg6"
     inkscape:window-maximized="1"
     inkscape:window-y="0"
     inkscape:window-x="0"
     inkscape:cy="19.614433"
     inkscape:cx="-0.25845011"
     inkscape:zoom="11.6875"
     showgrid="false"
     id="namedview8"
     inkscape:window-height="709"
     inkscape:window-width="1366"
     inkscape:pageshadow="2"
     inkscape:pageopacity="0"
     guidetolerance="10"
     gridtolerance="10"
     objecttolerance="10"
     borderopacity="1"
     bordercolor="#666666"
     pagecolor="#ffffff" />
  <path
     id="path2"
     fill="none"
     d="M0 0h24v24H0V0z" />
  <path
     style="stroke-width:0.909091"
     id="path4"
     d="m 12,8.3636364 c -2.0090909,0 -3.6363636,1.6272727 -3.6363636,3.6363636 0,2.009091 1.6272727,3.636364 3.6363636,3.636364 2.009091,0 3.636364,-1.627273 3.636364,-3.636364 0,-2.0090909 -1.627273,-3.6363636 -3.636364,-3.6363636 z m 8.127273,2.7272726 C 19.709091,7.3 16.7,4.2909091 12.909091,3.8727273 V 2.9090909 C 12.909091,2.4090909 12.5,2 12,2 11.5,2 11.090909,2.4090909 11.090909,2.9090909 V 3.8727273 C 7.3,4.2909091 4.2909091,7.3 3.8727273,11.090909 H 2.9090909 C 2.4090909,11.090909 2,11.5 2,12 c 0,0.5 0.4090909,0.909091 0.9090909,0.909091 H 3.8727273 C 4.2909091,16.7 7.3,19.709091 11.090909,20.127273 v 0.963636 C 11.090909,21.590909 11.5,22 12,22 c 0.5,0 0.909091,-0.409091 0.909091,-0.909091 V 20.127273 C 16.7,19.709091 19.709091,16.7 20.127273,12.909091 h 0.963636 C 21.590909,12.909091 22,12.5 22,12 22,11.5 21.590909,11.090909 21.090909,11.090909 Z M 12,18.363636 C 8.4818182,18.363636 5.6363636,15.518182 5.6363636,12 5.6363636,8.4818182 8.4818182,5.6363636 12,5.6363636 c 3.518182,0 6.363636,2.8454546 6.363636,6.3636364 0,3.518182 -2.845454,6.363636 -6.363636,6.363636 z" />
</svg>
