<?xml version="1.0" encoding="UTF-8" standalone="no"?>
<svg
   xmlns:dc="http://purl.org/dc/elements/1.1/"
   xmlns:cc="http://creativecommons.org/ns#"
   xmlns:rdf="http://www.w3.org/1999/02/22-rdf-syntax-ns#"
   xmlns:svg="http://www.w3.org/2000/svg"
   xmlns="http://www.w3.org/2000/svg"
   xmlns:sodipodi="http://sodipodi.sourceforge.net/DTD/sodipodi-0.dtd"
   xmlns:inkscape="http://www.inkscape.org/namespaces/inkscape"
   inkscape:version="1.0 (4035a4fb49, 2020-05-01)"
   sodipodi:docname="home.svg"
   id="svg6"
   version="1.1"
   width="24"
   viewBox="0 0 24 24"
   height="24">
  <metadata
     id="metadata12">
    <rdf:RDF>
      <cc:Work
         rdf:about="">
        <dc:format>image/svg+xml</dc:format>
        <dc:type
           rdf:resource="http://purl.org/dc/dcmitype/StillImage" />
      </cc:Work>
    </rdf:RDF>
  </metadata>
  <defs
     id="defs10" />
  <sodipodi:namedview
     inkscape:current-layer="svg6"
     inkscape:window-maximized="1"
     inkscape:window-y="0"
     inkscape:window-x="0"
     inkscape:cy="12"
     inkscape:cx="12"
     inkscape:zoom="23.375"
     showgrid="false"
     id="namedview8"
     inkscape:window-height="709"
     inkscape:window-width="1366"
     inkscape:pageshadow="2"
     inkscape:pageopacity="0"
     guidetolerance="10"
     gridtolerance="10"
     objecttolerance="10"
     borderopacity="1"
     bordercolor="#666666"
     pagecolor="#ffffff" />
  <path
     id="path2"
     fill="none"
     d="M0 0h24v24H0V0z" />
  <path
     style="stroke-width:1.08695"
     id="path4"
     d="m 9.8236894,19.96461 v -5.434739 h 4.3477916 v 5.434739 c 0,0.597822 0.489126,1.086948 1.086948,1.086948 h 3.260843 c 0.597822,0 1.086948,-0.489126 1.086948,-1.086948 v -7.608635 h 1.847811 c 0.499996,0 0.739125,-0.61956 0.358693,-0.945644 L 12.72584,3.2256137 c -0.41304,-0.3695623 -1.04347,-0.3695623 -1.45651,0 L 2.1824464,11.410331 c -0.3695623,0.326084 -0.1413033,0.945644 0.3586927,0.945644 h 1.8478114 v 7.608635 c 0,0.597822 0.4891265,1.086948 1.0869478,1.086948 h 3.2608435 c 0.5978216,0 1.0869476,-0.489126 1.0869476,-1.086948 z" />
</svg>
