<?xml version="1.0" encoding="UTF-8" standalone="no"?>
<svg
   xmlns:dc="http://purl.org/dc/elements/1.1/"
   xmlns:cc="http://creativecommons.org/ns#"
   xmlns:rdf="http://www.w3.org/1999/02/22-rdf-syntax-ns#"
   xmlns:svg="http://www.w3.org/2000/svg"
   xmlns="http://www.w3.org/2000/svg"
   xmlns:sodipodi="http://sodipodi.sourceforge.net/DTD/sodipodi-0.dtd"
   xmlns:inkscape="http://www.inkscape.org/namespaces/inkscape"
   height="24"
   width="24"
   inkscape:version="1.0 (4035a4fb49, 2020-05-01)"
   sodipodi:docname="info.svg"
   id="svg4"
   version="1.1"
   viewBox="0 0 24 24"
   role="img"
   class="svg-inline--fa fa-info fa-w-6"
   data-icon="info"
   data-prefix="fas"
   focusable="false"
   aria-hidden="true">
  <metadata
     id="metadata10">
    <rdf:RDF>
      <cc:Work
         rdf:about="">
        <dc:format>image/svg+xml</dc:format>
        <dc:type
           rdf:resource="http://purl.org/dc/dcmitype/StillImage" />
        <dc:title></dc:title>
      </cc:Work>
    </rdf:RDF>
  </metadata>
  <defs
     id="defs8" />
  <sodipodi:namedview
     inkscape:document-rotation="0"
     inkscape:current-layer="svg4"
     inkscape:window-maximized="1"
     inkscape:window-y="0"
     inkscape:window-x="0"
     inkscape:cy="9.1467112"
     inkscape:cx="10.026575"
     inkscape:zoom="14.75"
     showgrid="false"
     id="namedview6"
     inkscape:window-height="709"
     inkscape:window-width="1366"
     inkscape:pageshadow="2"
     inkscape:pageopacity="0"
     guidetolerance="10"
     gridtolerance="10"
     objecttolerance="10"
     borderopacity="1"
     bordercolor="#666666"
     pagecolor="#ffffff" />
  <path
     style="fill:currentColor;stroke-width:0.0390625"
     inkscape:connector-curvature="0"
     id="path2"
     d="M 9.03125,18.571442 H 9.8125 V 12.928558 H 9.03125 C 8.5997657,12.928558 8.25,12.578792 8.25,12.147308 V 10.28125 C 8.25,9.8497667 8.5997657,9.5 9.03125,9.5 h 4.375 c 0.431484,0 0.78125,0.3497667 0.78125,0.78125 v 8.290192 h 0.78125 c 0.431484,0 0.78125,0.349766 0.78125,0.78125 V 21.21875 C 15.75,21.650233 15.400234,22 14.96875,22 H 9.03125 C 8.5997657,22 8.25,21.650233 8.25,21.21875 v -1.866058 c 0,-0.431484 0.3497657,-0.78125 0.78125,-0.78125 z M 12,2 c -1.55332,0 -2.8125,1.2591833 -2.8125,2.8125 0,1.5533167 1.25918,2.8125 2.8125,2.8125 1.55332,0 2.8125,-1.2591833 2.8125,-2.8125 C 14.8125,3.2591833 13.553281,2 12,2 Z" />
</svg>
