<?xml version="1.0" encoding="UTF-8" standalone="no"?>
<svg
   xmlns:dc="http://purl.org/dc/elements/1.1/"
   xmlns:cc="http://creativecommons.org/ns#"
   xmlns:rdf="http://www.w3.org/1999/02/22-rdf-syntax-ns#"
   xmlns:svg="http://www.w3.org/2000/svg"
   xmlns="http://www.w3.org/2000/svg"
   xmlns:sodipodi="http://sodipodi.sourceforge.net/DTD/sodipodi-0.dtd"
   xmlns:inkscape="http://www.inkscape.org/namespaces/inkscape"
   inkscape:version="1.0 (4035a4fb49, 2020-05-01)"
   sodipodi:docname="library.svg"
   id="svg6"
   version="1.1"
   width="24"
   viewBox="0 0 24 24"
   height="24">
  <metadata
     id="metadata12">
    <rdf:RDF>
      <cc:Work
         rdf:about="">
        <dc:format>image/svg+xml</dc:format>
        <dc:type
           rdf:resource="http://purl.org/dc/dcmitype/StillImage" />
      </cc:Work>
    </rdf:RDF>
  </metadata>
  <defs
     id="defs10" />
  <sodipodi:namedview
     inkscape:current-layer="svg6"
     inkscape:window-maximized="1"
     inkscape:window-y="0"
     inkscape:window-x="0"
     inkscape:cy="12.097462"
     inkscape:cx="10.892477"
     inkscape:zoom="16.528621"
     showgrid="false"
     id="namedview8"
     inkscape:window-height="709"
     inkscape:window-width="1366"
     inkscape:pageshadow="2"
     inkscape:pageopacity="0"
     guidetolerance="10"
     gridtolerance="10"
     objecttolerance="10"
     borderopacity="1"
     bordercolor="#666666"
     pagecolor="#ffffff" />
  <path
     id="path2"
     fill="none"
     d="M0 0h24v24H0V0z" />
  <path
     style="stroke-width:0.994679"
     id="path4"
     d="M 12,11.448638 C 10.18,9.7666815 7.8800002,8.589312 5.32,8.1341944 4.11,7.9264233 3,8.876234 3,10.093179 v 6.173769 c 0,1.662169 0.72,2.532829 1.7100001,2.661449 2.5,0.316603 4.7700001,1.335671 6.6299999,2.839538 0.350001,0.286922 0.920001,0.316604 1.27,0.03957 1.87,-1.51376 4.16,-2.552616 6.68,-2.869219 0.94,-0.128621 1.71,-1.04875 1.71,-1.99856 V 10.093174 C 21,8.876229 19.890001,7.9264183 18.680001,8.1341894 16.12,8.589307 13.82,9.7666765 12,11.448633 Z m 0,-3.5123209 c 1.66,0 3.000001,-1.3257774 3.000001,-2.9681584 C 15.000001,3.3257777 13.66,2.0000003 12,2.0000003 c -1.66,0 -2.9999999,1.3257774 -2.9999999,2.9681584 0,1.642381 1.3399999,2.9681584 2.9999999,2.9681584 z" />
</svg>
