<?xml version="1.0" encoding="UTF-8" standalone="no"?>
<svg
   xmlns:dc="http://purl.org/dc/elements/1.1/"
   xmlns:cc="http://creativecommons.org/ns#"
   xmlns:rdf="http://www.w3.org/1999/02/22-rdf-syntax-ns#"
   xmlns:svg="http://www.w3.org/2000/svg"
   xmlns="http://www.w3.org/2000/svg"
   xmlns:sodipodi="http://sodipodi.sourceforge.net/DTD/sodipodi-0.dtd"
   xmlns:inkscape="http://www.inkscape.org/namespaces/inkscape"
   height="24"
   viewBox="0 0 24 24"
   width="24"
   version="1.1"
   id="svg6"
   sodipodi:docname="map-marker-bus.svg"
   inkscape:version="1.0.1 (3bc2e813f5, 2020-09-07)">
  <metadata
     id="metadata12">
    <rdf:RDF>
      <cc:Work
         rdf:about="">
        <dc:format>image/svg+xml</dc:format>
        <dc:type
           rdf:resource="http://purl.org/dc/dcmitype/StillImage" />
        <dc:title />
      </cc:Work>
    </rdf:RDF>
  </metadata>
  <defs
     id="defs10">
    <clipPath
       id="clipPath955"
       clipPathUnits="userSpaceOnUse">
      <circle
         r="32.000004"
         cy="265.45825"
         cx="33.482708"
         id="circle957"
         style="opacity:0.53200001;fill:#9c81f1;fill-opacity:1;stroke-width:0.26458332" />
    </clipPath>
  </defs>
  <sodipodi:namedview
     pagecolor="#ffffff"
     bordercolor="#666666"
     borderopacity="1"
     objecttolerance="10"
     gridtolerance="10"
     guidetolerance="10"
     inkscape:pageopacity="0"
     inkscape:pageshadow="2"
     inkscape:window-width="1366"
     inkscape:window-height="709"
     id="namedview8"
     showgrid="false"
     inkscape:zoom="19.666667"
     inkscape:cx="4.0677268"
     inkscape:cy="7.3946436"
     inkscape:window-x="0"
     inkscape:window-y="0"
     inkscape:window-maximized="1"
     inkscape:current-layer="svg6"
     inkscape:document-rotation="0" />
  <path
     d="m 12,2.1614064 c -4.2,0 -8,3.2192186 -8,8.1992186 0,3.18 2.4500782,6.920468 7.330078,11.230469 0.38,0.329999 0.950078,0.329999 1.330078,0 4.89,-4.31 7.339844,-8.050469 7.339844,-11.230469 0,-4.98 -3.8,-8.1992186 -8,-8.1992186 z"
     id="path2"
     style="fill:#aa0000"
     sodipodi:nodetypes="ssccss" />
  <path
     d="M0 0h24v24H0z"
     fill="none"
     id="path4" />
  <path
     style="stroke-width:0.526315;fill:#ffffff"
     inkscape:connector-curvature="0"
     id="path4-3"
     d="m 7.7894735,12.368421 c 0,0.463158 0.2052631,0.878948 0.5263158,1.168421 v 0.673684 C 8.3157893,14.647368 8.6684209,15 9.105263,15 9.5421052,15 9.8947367,14.647368 9.8947367,14.210526 v -0.263157 h 4.2105263 v 0.263157 c 0,0.431579 0.352631,0.789474 0.789473,0.789474 0.431579,0 0.789474,-0.352632 0.789474,-0.789474 v -0.673684 c 0.321052,-0.289473 0.526316,-0.705263 0.526316,-1.168421 V 7.1052631 C 16.210525,5.2631579 14.326315,5 12,5 9.6736841,5 7.7894735,5.2631579 7.7894735,7.1052631 Z m 1.8421052,0.526316 c -0.4368421,0 -0.7894735,-0.352631 -0.7894735,-0.789474 0,-0.436842 0.3526314,-0.789473 0.7894735,-0.789473 0.4368423,0 0.7894733,0.352631 0.7894733,0.789473 0,0.436843 -0.352631,0.789474 -0.7894733,0.789474 z m 4.7368413,0 c -0.436842,0 -0.789474,-0.352631 -0.789474,-0.789474 0,-0.436842 0.352632,-0.789473 0.789474,-0.789473 0.436843,0 0.789474,0.352631 0.789474,0.789473 0,0.436843 -0.352631,0.789474 -0.789474,0.789474 z M 15.157894,9.736842 H 8.8421052 V 7.1052631 h 6.3157888 z" />
</svg>
