<?xml version="1.0" encoding="UTF-8" standalone="no"?>
<svg
   xmlns:dc="http://purl.org/dc/elements/1.1/"
   xmlns:cc="http://creativecommons.org/ns#"
   xmlns:rdf="http://www.w3.org/1999/02/22-rdf-syntax-ns#"
   xmlns:svg="http://www.w3.org/2000/svg"
   xmlns="http://www.w3.org/2000/svg"
   xmlns:sodipodi="http://sodipodi.sourceforge.net/DTD/sodipodi-0.dtd"
   xmlns:inkscape="http://www.inkscape.org/namespaces/inkscape"
   inkscape:version="1.0.1 (3bc2e813f5, 2020-09-07)"
   sodipodi:docname="map-marker-bathroom.svg"
   id="svg6"
   version="1.1"
   width="24"
   viewBox="0 0 24 24"
   height="24">
  <metadata
     id="metadata12">
    <rdf:RDF>
      <cc:Work
         rdf:about="">
        <dc:format>image/svg+xml</dc:format>
        <dc:type
           rdf:resource="http://purl.org/dc/dcmitype/StillImage" />
        <dc:title />
      </cc:Work>
    </rdf:RDF>
  </metadata>
  <defs
     id="defs10">
    <clipPath
       clipPathUnits="userSpaceOnUse"
       id="clipPath955">
      <circle
         style="opacity:0.53200001;fill:#9c81f1;fill-opacity:1;stroke-width:0.26458332"
         id="circle957"
         cx="33.482708"
         cy="265.45825"
         r="32.000004" />
    </clipPath>
    <pattern
       id="pattern7335"
       patternTransform="translate(3.9999993,2.0000006)"
       height="19.6775"
       width="16"
       patternUnits="userSpaceOnUse">
      <path
         d="M 7.9999997,0 C 12.2,0 16,3.2200001 16,8.2000004 16,11.38 13.55,15.12 8.6599997,19.43 c -0.38,0.33 -0.95,0.33 -1.33,0 C 2.45,15.12 0,11.38 0,8.2000004 0,3.2200001 3.8,0 7.9999997,0 Z"
         id="path2"
         inkscape:connector-curvature="0"
         sodipodi:nodetypes="ssccss"
         clip-path="none" />
      <g
         id="g3520"
         transform="translate(-60.694918,-53.417177)">
        <g
           transform="matrix(0.1510276,0,0,0.1510276,-19.372598,10.518424)"
           id="g12">
          <g
             transform="matrix(1.2870781,0,0,1.2870781,1300.8516,87.112937)"
             id="g3015">
            <path
               inkscape:connector-curvature="0"
               id="path3017"
               d="m -571.18527,209.09047 c -0.80845,-0.41328 -1.72268,-1.33073 -2.06916,-2.07644 -0.51115,-1.10011 -0.85821,-1.33757 -1.9657,-1.34495 -0.78347,-0.006 -1.69048,-0.35449 -2.17262,-0.83661 -0.77641,-0.77642 -0.82766,-1.37944 -0.82766,-9.73834 0,-9.98081 0.24497,-11.18559 2.56154,-12.59797 1.30415,-0.79511 2.05471,-0.83514 15.64705,-0.83441 8.13184,4.4e-4 14.91076,0.17677 15.74913,0.40966 2.20577,0.61277 3.45174,2.23425 5.40618,7.03545 1.73903,4.27202 1.7692,4.42988 1.79059,9.36939 0.0244,5.63199 -0.34115,6.5289 -2.85295,7.00011 -0.94436,0.17717 -1.43617,0.57349 -1.75288,1.41254 -1.33483,3.53636 -7.21287,3.51489 -8.55138,-0.0313 l -0.45202,-1.19753 h -6.85368 -6.85368 l -0.45202,1.19753 c -0.89605,2.3739 -3.96446,3.45271 -6.35074,2.23282 z m 4.36404,-1.96312 c 2.05268,-2.05269 0.59816,-5.60554 -2.29488,-5.60554 -1.70131,0 -3.31066,1.60935 -3.31066,3.31066 0,1.70129 1.60935,3.31064 3.31066,3.31064 0.80629,0 1.65459,-0.37547 2.29488,-1.01576 z m 23.17457,0 c 0.6403,-0.6403 1.01577,-1.48859 1.01577,-2.29488 0,-0.80631 -0.37547,-1.6546 -1.01577,-2.29489 -0.64029,-0.6403 -1.48858,-1.01577 -2.29489,-1.01577 -0.80629,0 -1.65458,0.37547 -2.29488,1.01577 -0.64029,0.64029 -1.01576,1.48858 -1.01576,2.29489 0,0.80629 0.37547,1.65458 1.01576,2.29488 0.6403,0.64029 1.48859,1.01576 2.29488,1.01576 0.80631,0 1.6546,-0.37547 2.29489,-1.01576 z m -21.82773,-14.37877 c 0.65407,-0.65407 0.65407,-5.8017 0,-6.45578 -0.30926,-0.30924 -1.83926,-0.49659 -4.05556,-0.49659 -2.21629,0 -3.74629,0.18735 -4.05555,0.49659 -0.65407,0.65408 -0.65407,5.80171 0,6.45578 0.30926,0.30925 1.83926,0.4966 4.05555,0.4966 2.2163,0 3.7463,-0.18735 4.05556,-0.4966 z m 13.2426,0 c 0.65408,-0.65407 0.65408,-5.8017 0,-6.45578 -0.67639,-0.67639 -8.26236,-0.67639 -8.93876,0 -0.28592,0.28592 -0.4966,1.65533 -0.4966,3.22789 0,1.57256 0.21068,2.94197 0.4966,3.22789 0.6764,0.6764 8.26237,0.6764 8.93876,0 z m 13.32539,0.3697 c 0,-0.0698 -0.61207,-1.69926 -1.36015,-3.62103 l -1.36015,-3.49413 -2.81541,-0.12321 c -1.71912,-0.0752 -3.04264,0.0654 -3.39892,0.36105 -0.73961,0.61382 -0.80868,5.78584 -0.0869,6.50762 0.32196,0.32196 1.99559,0.4966 4.75907,0.4966 2.34436,0 4.26247,-0.0571 4.26247,-0.1269 z"
               style="fill:#ffffff;fill-opacity:1;stroke-width:0.41383165" />
          </g>
        </g>
        <g
           transform="translate(0,-282.51998)"
           id="g14" />
        <g
           transform="translate(0,-282.51998)"
           id="g16" />
        <g
           transform="translate(0,-282.51998)"
           id="g18" />
        <g
           transform="translate(0,-282.51998)"
           id="g20" />
        <g
           transform="translate(0,-282.51998)"
           id="g22" />
        <g
           transform="translate(0,-282.51998)"
           id="g24" />
        <g
           transform="translate(0,-282.51998)"
           id="g26" />
        <g
           transform="translate(0,-282.51998)"
           id="g28" />
        <g
           transform="translate(0,-282.51998)"
           id="g30" />
        <g
           transform="translate(0,-282.51998)"
           id="g32" />
        <g
           transform="translate(0,-282.51998)"
           id="g34" />
        <g
           transform="translate(0,-282.51998)"
           id="g36" />
        <g
           transform="translate(0,-282.51998)"
           id="g38" />
        <g
           transform="translate(0,-282.51998)"
           id="g40" />
        <g
           transform="translate(0,-282.51998)"
           id="g42" />
      </g>
    </pattern>
    <clipPath
       id="clipPath955-5"
       clipPathUnits="userSpaceOnUse">
      <circle
         r="32.000004"
         cy="265.45825"
         cx="33.482708"
         id="circle957-3"
         style="opacity:0.53200001;fill:#9c81f1;fill-opacity:1;stroke-width:0.26458332" />
    </clipPath>
    <clipPath
       clipPathUnits="userSpaceOnUse"
       id="clipPath955-3">
      <circle
         style="opacity:0.53200001;fill:#9c81f1;fill-opacity:1;stroke-width:0.26458332"
         id="circle957-6"
         cx="33.482708"
         cy="265.45825"
         r="32.000004" />
    </clipPath>
  </defs>
  <sodipodi:namedview
     inkscape:document-rotation="0"
     inkscape:snap-center="false"
     inkscape:current-layer="g2462"
     inkscape:window-maximized="1"
     inkscape:window-y="0"
     inkscape:window-x="0"
     inkscape:cy="13.439013"
     inkscape:cx="8.8948215"
     inkscape:zoom="19.666667"
     showgrid="false"
     id="namedview8"
     inkscape:window-height="709"
     inkscape:window-width="1366"
     inkscape:pageshadow="2"
     inkscape:pageopacity="0"
     guidetolerance="10"
     gridtolerance="10"
     objecttolerance="10"
     borderopacity="1"
     bordercolor="#666666"
     pagecolor="#ffffff" />
  <path
     id="path4"
     fill="none"
     d="M0 0h24v24H0z" />
  <rect
     id="rect7357"
     y="2.0000006"
     x="3.9999993"
     height="19.6775"
     width="16"
     style="stroke:none;fill:none" />
  <g
     transform="translate(-44.694919,-333.93716)"
     id="g1560" />
  <g
     transform="translate(-44.694919,-333.93716)"
     id="g1562" />
  <g
     transform="translate(-44.694919,-333.93716)"
     id="g1564" />
  <g
     transform="translate(-44.694919,-333.93716)"
     id="g1566" />
  <g
     transform="translate(-44.694919,-333.93716)"
     id="g1568" />
  <g
     transform="translate(-44.694919,-333.93716)"
     id="g1570" />
  <g
     transform="translate(-44.694919,-333.93716)"
     id="g1572" />
  <g
     transform="translate(-44.694919,-333.93716)"
     id="g1574" />
  <g
     transform="translate(-44.694919,-333.93716)"
     id="g1576" />
  <g
     transform="translate(-44.694919,-333.93716)"
     id="g1578" />
  <g
     transform="translate(-44.694919,-333.93716)"
     id="g1580" />
  <g
     transform="translate(-44.694919,-333.93716)"
     id="g1582" />
  <g
     transform="translate(-44.694919,-333.93716)"
     id="g1584" />
  <g
     transform="translate(-44.694919,-333.93716)"
     id="g1586" />
  <g
     transform="translate(-44.694919,-333.93716)"
     id="g1588" />
  <g
     id="g2462">
    <path
       d="m 12,2.0000001 c -4.2689029,0 -8.1312431,3.2720309 -8.1312431,8.3337309 0,3.232169 2.4902733,7.034001 7.4503311,11.414709 0.386234,0.335413 0.965665,0.335413 1.351899,0 4.970221,-4.380707 7.460256,-8.18254 7.460256,-11.414709 0,-5.0617 -3.862341,-8.3337309 -8.131243,-8.3337309 z"
       id="path2-6"
       style="fill:#aa0000;stroke-width:1.01641"
       sodipodi:nodetypes="ssccss" />
    <path
       d="m 8.597545,14.499999 v -3.25 H 8.347547 c -0.275001,0 -0.5000012,-0.225 -0.5000012,-0.5 V 8.5 c 0,-0.550001 0.4500002,-1.000001 0.9999992,-1.000001 h 1.5 c 0.550001,0 1.000001,0.45 1.000001,1.000001 v 2.249999 c 0,0.275 -0.225,0.5 -0.5,0.5 h -0.250001 v 3.25 c 0,0.275001 -0.225,0.500001 -0.5,0.500001 H 9.097546 C 8.822545,15 8.597545,14.775 8.597545,14.499999 Z m 6.25,0 V 12 h 0.804999 c 0.340001,0 0.58,-0.335001 0.475001,-0.66 l -1.05,-3.155 c -0.139997,-0.41 -0.52,-0.685001 -0.950001,-0.685001 h -0.06 c -0.43,0 -0.815001,0.275001 -0.950001,0.685001 l -1.049995,3.155 c -0.110006,0.324999 0.129999,0.66 0.475,0.66 h 0.804998 v 2.499999 c 0,0.275001 0.225,0.500001 0.5,0.500001 h 0.499999 c 0.275,0 0.500001,-0.225 0.5,-0.500001 z M 9.597546,7 c 0.555,0 0.999999,-0.445001 0.999999,-1 0,-0.5550002 -0.444999,-1.0000001 -0.999999,-1.0000001 -0.554999,0 -1.000001,0.4449999 -1.000001,1.0000001 0,0.554999 0.445002,1 1.000001,1 z m 4.499998,0 c 0.555001,0 1.000001,-0.445001 1.000001,-1 0,-0.5550002 -0.445,-1.0000001 -1.000001,-1.0000001 -0.555,0 -1,0.4449999 -1,1.0000001 0,0.554999 0.445,1 1,1 z"
       id="path4-6"
       style="fill:#ffffff;stroke-width:0.500001" />
  </g>
</svg>
