<?xml version="1.0" encoding="UTF-8" standalone="no"?>
<svg
   xmlns:dc="http://purl.org/dc/elements/1.1/"
   xmlns:cc="http://creativecommons.org/ns#"
   xmlns:rdf="http://www.w3.org/1999/02/22-rdf-syntax-ns#"
   xmlns:svg="http://www.w3.org/2000/svg"
   xmlns="http://www.w3.org/2000/svg"
   xmlns:sodipodi="http://sodipodi.sourceforge.net/DTD/sodipodi-0.dtd"
   xmlns:inkscape="http://www.inkscape.org/namespaces/inkscape"
   inkscape:version="1.0 (4035a4fb49, 2020-05-01)"
   sodipodi:docname="map.svg"
   id="svg6"
   version="1.1"
   width="24"
   viewBox="0 0 24 24"
   height="24">
  <metadata
     id="metadata12">
    <rdf:RDF>
      <cc:Work
         rdf:about="">
        <dc:format>image/svg+xml</dc:format>
        <dc:type
           rdf:resource="http://purl.org/dc/dcmitype/StillImage" />
      </cc:Work>
    </rdf:RDF>
  </metadata>
  <defs
     id="defs10" />
  <sodipodi:namedview
     inkscape:current-layer="svg6"
     inkscape:window-maximized="1"
     inkscape:window-y="0"
     inkscape:window-x="0"
     inkscape:cy="12"
     inkscape:cx="12"
     inkscape:zoom="23.375"
     showgrid="false"
     id="namedview8"
     inkscape:window-height="709"
     inkscape:window-width="1366"
     inkscape:pageshadow="2"
     inkscape:pageopacity="0"
     guidetolerance="10"
     gridtolerance="10"
     objecttolerance="10"
     borderopacity="1"
     bordercolor="#666666"
     pagecolor="#ffffff" />
  <path
     id="path2"
     fill="none"
     d="M0 0h24v24H0V0z" />
  <path
     style="stroke-width:1.11867"
     id="path4"
     d="M 14.95164,4.097962 9.392996,2.1280804 C 8.92607,1.9592333 8.4146748,1.9592333 7.9477487,2.1168239 L 3.5119511,3.6251904 C 2.6114508,3.9403715 2,4.795863 2,5.7639191 V 19.102832 c 0,1.587162 1.5675375,2.667782 3.0239022,2.093703 L 8.2812674,19.913298 C 8.5258477,19.811989 8.8037799,19.811989 9.04836,19.902038 l 5.558644,1.969882 c 0.466926,0.168846 0.978321,0.168846 1.445247,0.01126 l 4.435798,-1.508366 C 21.388549,20.070888 22,19.20414 22,18.236084 V 4.8971712 C 22,3.3100093 20.432462,2.2293885 18.976098,2.8034684 L 15.718733,4.0867056 C 15.474152,4.1767573 15.207337,4.1880137 14.95164,4.097962 Z M 15.340745,19.755707 8.6703724,17.380592 V 4.2442961 l 6.6703726,2.3751144 z" />
</svg>
