<?xml version="1.0" encoding="UTF-8" standalone="no"?>
<svg
   xmlns:dc="http://purl.org/dc/elements/1.1/"
   xmlns:cc="http://creativecommons.org/ns#"
   xmlns:rdf="http://www.w3.org/1999/02/22-rdf-syntax-ns#"
   xmlns:svg="http://www.w3.org/2000/svg"
   xmlns="http://www.w3.org/2000/svg"
   xmlns:sodipodi="http://sodipodi.sourceforge.net/DTD/sodipodi-0.dtd"
   xmlns:inkscape="http://www.inkscape.org/namespaces/inkscape"
   inkscape:version="1.0 (4035a4fb49, 2020-05-01)"
   sodipodi:docname="menu.svg"
   id="svg6"
   version="1.1"
   width="24"
   viewBox="0 0 24 24"
   height="24">
  <metadata
     id="metadata12">
    <rdf:RDF>
      <cc:Work
         rdf:about="">
        <dc:format>image/svg+xml</dc:format>
        <dc:type
           rdf:resource="http://purl.org/dc/dcmitype/StillImage" />
      </cc:Work>
    </rdf:RDF>
  </metadata>
  <defs
     id="defs10" />
  <sodipodi:namedview
     inkscape:current-layer="svg6"
     inkscape:window-maximized="1"
     inkscape:window-y="0"
     inkscape:window-x="0"
     inkscape:cy="12.19656"
     inkscape:cx="-0.4088124"
     inkscape:zoom="11.6875"
     showgrid="false"
     id="namedview8"
     inkscape:window-height="709"
     inkscape:window-width="1366"
     inkscape:pageshadow="2"
     inkscape:pageopacity="0"
     guidetolerance="10"
     gridtolerance="10"
     objecttolerance="10"
     borderopacity="1"
     bordercolor="#666666"
     pagecolor="#ffffff" />
  <path
     id="path2"
     fill="none"
     d="M0 0h24v24H0V0z" />
  <path
     style="stroke-width:1.11803"
     id="path4"
     d="M 2,18.249999 C 2,18.9375 2.45,19.5 3,19.5 h 18 c 0.55,0 1,-0.5625 1,-1.250001 0,-0.6875 -0.45,-1.25 -1,-1.25 H 3 c -0.55,0 -1,0.5625 -1,1.25 z m 0,-6.25 C 2,12.687499 2.45,13.25 3,13.25 h 18 c 0.55,0 1,-0.562501 1,-1.250001 0,-0.6875 -0.45,-1.25 -1,-1.25 H 3 c -0.55,0 -1,0.5625 -1,1.25 z M 2,5.7499998 c 0,0.6874999 0.45,1.2499999 1,1.2499999 h 18 c 0.55,0 1,-0.5625 1,-1.2499999 0,-0.6875 -0.45,-1.25 -1,-1.25 H 3 c -0.55,0 -1,0.5625 -1,1.25 z" />
</svg>
