<?xml version="1.0" encoding="UTF-8" standalone="no"?>
<svg
   xmlns:dc="http://purl.org/dc/elements/1.1/"
   xmlns:cc="http://creativecommons.org/ns#"
   xmlns:rdf="http://www.w3.org/1999/02/22-rdf-syntax-ns#"
   xmlns:svg="http://www.w3.org/2000/svg"
   xmlns="http://www.w3.org/2000/svg"
   xmlns:sodipodi="http://sodipodi.sourceforge.net/DTD/sodipodi-0.dtd"
   xmlns:inkscape="http://www.inkscape.org/namespaces/inkscape"
   inkscape:version="1.0.1 (3bc2e813f5, 2020-09-07)"
   sodipodi:docname="phone.svg"
   id="svg6"
   version="1.1"
   width="24"
   viewBox="0 0 24 24"
   height="24">
  <metadata
     id="metadata12">
    <rdf:RDF>
      <cc:Work
         rdf:about="">
        <dc:format>image/svg+xml</dc:format>
        <dc:type
           rdf:resource="http://purl.org/dc/dcmitype/StillImage" />
      </cc:Work>
    </rdf:RDF>
  </metadata>
  <defs
     id="defs10" />
  <sodipodi:namedview
     inkscape:current-layer="svg6"
     inkscape:window-maximized="1"
     inkscape:window-y="0"
     inkscape:window-x="0"
     inkscape:cy="10.803875"
     inkscape:cx="10.325425"
     inkscape:zoom="16.528621"
     showgrid="false"
     id="namedview8"
     inkscape:window-height="709"
     inkscape:window-width="1366"
     inkscape:pageshadow="2"
     inkscape:pageopacity="0"
     guidetolerance="10"
     gridtolerance="10"
     objecttolerance="10"
     borderopacity="1"
     bordercolor="#666666"
     pagecolor="#ffffff"
     inkscape:document-rotation="0" />
  <path
     id="path2"
     fill="none"
     d="M0 0h24v24H0V0z" />
  <path
     style="stroke-width:1.11335;fill:#000000;fill-opacity:1"
     id="path4"
     d="m 20.040391,15.638616 -2.827914,-0.322872 c -0.679144,-0.07794 -1.347155,0.155869 -1.825897,0.63461 l -2.048567,2.048568 C 10.187226,16.395695 7.6042503,13.823852 6.0010235,10.661932 L 8.0607247,8.6022315 C 8.539466,8.1234902 8.7732699,7.455479 8.6953353,6.7763343 L 8.3724632,3.9706873 C 8.238861,2.8462018 7.2925118,2.0000543 6.1568928,2.0000543 H 4.2307939 c -1.2580878,0 -2.3046386,1.0465509 -2.226704,2.3046386 0.5900765,9.5080251 8.1942701,17.1010861 17.6911621,17.6911631 1.258088,0.07793 2.304639,-0.968617 2.304639,-2.226704 v -1.926099 c 0.01113,-1.124486 -0.835014,-2.070835 -1.9595,-2.204437 z" />
</svg>
