<?xml version="1.0" encoding="UTF-8" standalone="no"?>
<svg
   xmlns:dc="http://purl.org/dc/elements/1.1/"
   xmlns:cc="http://creativecommons.org/ns#"
   xmlns:rdf="http://www.w3.org/1999/02/22-rdf-syntax-ns#"
   xmlns:svg="http://www.w3.org/2000/svg"
   xmlns="http://www.w3.org/2000/svg"
   xmlns:sodipodi="http://sodipodi.sourceforge.net/DTD/sodipodi-0.dtd"
   xmlns:inkscape="http://www.inkscape.org/namespaces/inkscape"
   sodipodi:docname="radio.svg"
   inkscape:version="1.0 (4035a4fb49, 2020-05-01)"
   id="svg8"
   version="1.1"
   viewBox="0 0 6.3499998 6.3499998"
   height="24"
   width="24">
  <defs
     id="defs2" />
  <sodipodi:namedview
     inkscape:document-rotation="0"
     units="px"
     inkscape:pagecheckerboard="true"
     inkscape:window-maximized="1"
     inkscape:window-y="0"
     inkscape:window-x="0"
     inkscape:window-height="709"
     inkscape:window-width="1366"
     showgrid="false"
     inkscape:current-layer="layer1"
     inkscape:document-units="mm"
     inkscape:cy="3.628546"
     inkscape:cx="13.853992"
     inkscape:zoom="11.2"
     inkscape:pageshadow="2"
     inkscape:pageopacity="0.0"
     borderopacity="1.0"
     bordercolor="#666666"
     pagecolor="#ffffff"
     id="base" />
  <metadata
     id="metadata5">
    <rdf:RDF>
      <cc:Work
         rdf:about="">
        <dc:format>image/svg+xml</dc:format>
        <dc:type
           rdf:resource="http://purl.org/dc/dcmitype/StillImage" />
        <dc:title></dc:title>
      </cc:Work>
    </rdf:RDF>
  </metadata>
  <g
     transform="translate(0,-290.65)"
     id="layer1"
     inkscape:groupmode="layer"
     inkscape:label="Camada 1">
    <path
       inkscape:connector-curvature="0"
       id="path816"
       d=""
       style="fill:#000000;stroke-width:0.46202019" />
    <path
       sodipodi:nodetypes="scsscsssssccssssssscsccsccccssccsssssccscss"
       inkscape:connector-curvature="0"
       id="path4777-3"
       d="m 2.9156687,296.43721 c 0,-0.0324 0.024917,-0.12971 0.05537,-0.21642 0.2844661,-0.80999 -0.1667654,-1.82712 -0.9834243,-2.21674 -0.3884895,-0.18535 -0.6819268,-0.23574 -1.05414577,-0.18102 -0.16129175,0.0237 -0.32767694,0.0543 -0.36974402,0.0681 -0.0555442,0.0182 -0.0450732,-0.002 0.0382429,-0.0745 0.19441252,-0.16846 0.49620779,-0.26271 0.90302959,-0.28202 0.6051957,-0.0287 1.0188674,0.13351 1.4090422,0.55253 0.5307546,0.57001 0.6367203,1.29312 0.2921381,1.99357 -0.1400847,0.28475 -0.2905087,0.46933 -0.2905087,0.35648 z m 1.0468679,-0.0504 c 0.153336,-0.40144 0.1958814,-0.63424 0.192869,-1.05531 -0.00269,-0.37603 -0.018772,-0.4876 -0.1079816,-0.74919 -0.2507015,-0.73512 -0.6871692,-1.23353 -1.3803347,-1.57624 -0.5732453,-0.28342 -1.1475129,-0.35014 -1.76858082,-0.20548 -0.37370604,0.087 -0.29968866,-0.0249 0.16946662,-0.25641 0.6755067,-0.33328 1.4314728,-0.32342 2.1536376,0.028 0.2620295,0.12755 0.3888143,0.22229 0.6538064,0.48863 0.3621327,0.36396 0.5548373,0.6966 0.6699488,1.15643 0.09142,0.36519 0.058111,1.03933 -0.069434,1.40528 -0.1006437,0.28877 -0.4205373,0.82308 -0.4927814,0.82308 -0.023708,0 -0.032986,-0.0265 -0.020616,-0.0589 z M 1.978125,295.95053 c 0.055146,-0.40281 -0.1247474,-0.78965 -0.4586172,-0.98622 -0.1317604,-0.0776 -0.2491411,-0.10939 -0.4700892,-0.12744 l -0.29447902,-0.024 0.13963002,-0.0672 c 0.1608328,-0.0774 0.4719296,-0.0877 0.6880079,-0.0226 0.1979323,0.0596 0.447605,0.28009 0.5343432,0.47193 0.09209,0.20369 0.09155,0.53177 -0.00121,0.737 -0.1118825,0.24752 -0.1699936,0.2554 -0.1375828,0.0187 z m 3.0791523,-0.0302 c 0,-0.0143 0.043972,-0.15392 0.097716,-0.31035 0.35792,-1.04179 0.1048867,-2.19432 -0.6607741,-3.00971 -0.4248232,-0.45242 -0.8893369,-0.73518 -1.454299,-0.88528 -0.3841362,-0.10205 -1.0223186,-0.10932 -1.4151691,-0.0161 -0.1526131,0.0362 -0.2971627,0.0593 -0.3212214,0.0512 -0.024059,-0.008 0.045745,-0.0723 0.1551181,-0.14285 0.8003057,-0.51593 1.9446888,-0.57095 2.8124292,-0.13521 0.9386255,0.47133 1.5547196,1.47427 1.5497262,2.52279 -0.00237,0.4979 -0.1645225,1.15217 -0.3662465,1.47779 -0.1966635,0.31746 -0.397279,0.54355 -0.397279,0.44773 z"
       style="fill:#000000;stroke-width:0.0383314" />
  </g>
</svg>
