<?xml version="1.0" encoding="UTF-8" standalone="no"?>
<svg
   xmlns:dc="http://purl.org/dc/elements/1.1/"
   xmlns:cc="http://creativecommons.org/ns#"
   xmlns:rdf="http://www.w3.org/1999/02/22-rdf-syntax-ns#"
   xmlns:svg="http://www.w3.org/2000/svg"
   xmlns="http://www.w3.org/2000/svg"
   xmlns:sodipodi="http://sodipodi.sourceforge.net/DTD/sodipodi-0.dtd"
   xmlns:inkscape="http://www.inkscape.org/namespaces/inkscape"
   inkscape:version="1.0 (4035a4fb49, 2020-05-01)"
   height="24"
   width="24"
   sodipodi:docname="recycling.svg"
   id="svg4"
   version="1.1"
   viewBox="0 0 24 24"
   role="img"
   class="svg-inline--fa fa-recycle fa-w-16"
   data-icon="recycle"
   data-prefix="fas"
   focusable="false"
   aria-hidden="true">
  <metadata
     id="metadata10">
    <rdf:RDF>
      <cc:Work
         rdf:about="">
        <dc:format>image/svg+xml</dc:format>
        <dc:type
           rdf:resource="http://purl.org/dc/dcmitype/StillImage" />
        <dc:title />
      </cc:Work>
    </rdf:RDF>
  </metadata>
  <defs
     id="defs8" />
  <sodipodi:namedview
     inkscape:document-rotation="0"
     inkscape:current-layer="svg4"
     inkscape:window-maximized="1"
     inkscape:window-y="0"
     inkscape:window-x="0"
     inkscape:cy="25.212155"
     inkscape:cx="39.031482"
     inkscape:zoom="7.375"
     showgrid="false"
     id="namedview6"
     inkscape:window-height="709"
     inkscape:window-width="1366"
     inkscape:pageshadow="2"
     inkscape:pageopacity="0"
     guidetolerance="10"
     gridtolerance="10"
     objecttolerance="10"
     borderopacity="1"
     bordercolor="#666666"
     pagecolor="#ffffff" />
  <path
     style="fill:currentColor;stroke-width:0.0390625"
     inkscape:connector-curvature="0"
     id="path2"
     d="M 9.2094053,12.230585 C 9.3356554,12.777344 8.7358504,13.19289 8.2692485,12.90121 L 6.6779976,11.906874 4.6910044,15.086642 c -0.5189066,0.830273 0.080859,1.91336 1.0594536,1.91336 h 2.0307825 c 0.2588673,0 0.4687502,0.209883 0.4687502,0.46875 v 1.562501 c 0,0.258867 -0.2098829,0.468751 -0.4687502,0.468751 h -2.026759 c -2.942736,0 -4.738362,-3.244065 -3.1800018,-5.737504 L 4.5597152,10.583279 2.968894,9.5892161 C 2.4969797,9.2944121 2.6186594,8.5751141 3.15948,8.4502311 L 7.4656153,7.4560904 C 7.8019826,7.3784337 8.1375297,7.5881608 8.215186,7.9244501 Z m 3.8500427,-7.1451209 1.612851,2.5810951 -1.591406,0.9944149 c -0.470743,0.294062 -0.351563,1.013789 0.190585,1.138985 L 17.577613,10.7941 c 0.338751,0.07808 0.672462,-0.134297 0.749571,-0.46836 L 19.321326,6.0196052 C 19.446208,5.4788237 18.852966,5.0540187 18.381169,5.3489798 L 16.791832,6.3421054 15.179995,3.7607758 c -1.465665,-2.3450404 -4.890979,-2.350431 -6.360004,0 L 8.118311,4.8844483 C 7.9812015,5.1039797 8.0479985,5.3930814 8.2675298,5.530269 l 1.3249617,0.8279302 c 0.2195314,0.1371875 0.5087505,0.07043 0.6459385,-0.1491017 l 0.701602,-1.1227741 c 0.496563,-0.7945707 1.639571,-0.7685942 2.119416,-8.593e-4 z M 21.425311,13.7625 20.350506,12.04121 C 20.213358,11.821562 19.924099,11.754725 19.70449,11.891952 l -1.322696,0.826524 c -0.219531,0.137188 -0.286328,0.426368 -0.149141,0.645938 l 1.07672,1.723126 c 0.517851,0.828555 -0.08035,1.912501 -1.060001,1.912501 h -3.749377 v -1.874259 c 0,-0.555195 -0.673516,-0.835273 -1.066915,-0.441914 l -3.125002,3.12426 c -0.244101,0.244062 -0.244101,0.639805 0,0.883867 l 3.125002,3.124572 c 0.390703,0.390782 1.066915,0.117032 1.066915,-0.441993 v -1.87457 h 3.745314 c 2.940393,0 4.739652,-3.242073 3.180002,-5.737504 z" />
</svg>
