<?xml version="1.0" encoding="UTF-8" standalone="no"?>
<svg
   xmlns:dc="http://purl.org/dc/elements/1.1/"
   xmlns:cc="http://creativecommons.org/ns#"
   xmlns:rdf="http://www.w3.org/1999/02/22-rdf-syntax-ns#"
   xmlns:svg="http://www.w3.org/2000/svg"
   xmlns="http://www.w3.org/2000/svg"
   xmlns:sodipodi="http://sodipodi.sourceforge.net/DTD/sodipodi-0.dtd"
   xmlns:inkscape="http://www.inkscape.org/namespaces/inkscape"
   inkscape:version="1.0 (4035a4fb49, 2020-05-01)"
   sodipodi:docname="rss.svg"
   id="svg8"
   version="1.1"
   width="24"
   viewBox="0 0 24 24"
   height="24">
  <metadata
     id="metadata14">
    <rdf:RDF>
      <cc:Work
         rdf:about="">
        <dc:format>image/svg+xml</dc:format>
        <dc:type
           rdf:resource="http://purl.org/dc/dcmitype/StillImage" />
      </cc:Work>
    </rdf:RDF>
  </metadata>
  <defs
     id="defs12" />
  <sodipodi:namedview
     inkscape:current-layer="svg8"
     inkscape:window-maximized="1"
     inkscape:window-y="0"
     inkscape:window-x="0"
     inkscape:cy="13.875606"
     inkscape:cx="8.1117176"
     inkscape:zoom="11.6875"
     showgrid="false"
     id="namedview10"
     inkscape:window-height="709"
     inkscape:window-width="1366"
     inkscape:pageshadow="2"
     inkscape:pageopacity="0"
     guidetolerance="10"
     gridtolerance="10"
     objecttolerance="10"
     borderopacity="1"
     bordercolor="#666666"
     pagecolor="#ffffff" />
  <path
     id="path2"
     fill="none"
     d="M0 0h24v24H0V0z" />
  <g
     transform="matrix(1.2914409,0,0,1.2914409,-3.1657634,-3.8278205)"
     id="g18">
    <circle
       cx="6.1799998"
       cy="17.82"
       r="2.1800001"
       id="circle4" />
    <path
       d="M 5.59,10.23 C 4.75,10.09 4,10.78 4,11.63 c 0,0.71 0.53,1.28 1.23,1.4 2.92,0.51 5.22,2.82 5.74,5.74 0.12,0.7 0.69,1.23 1.4,1.23 0.85,0 1.54,-0.75 1.41,-1.59 C 13.1,14.21 9.79,10.9 5.59,10.23 Z M 5.56,4.52 C 4.73,4.43 4,5.1 4,5.93 c 0,0.73 0.55,1.33 1.27,1.4 6.01,0.6 10.79,5.38 11.39,11.39 0.07,0.73 0.67,1.28 1.4,1.28 0.84,0 1.5,-0.73 1.42,-1.56 C 18.75,11.1 12.91,5.25 5.56,4.52 Z"
       id="path6" />
  </g>
</svg>
