<?xml version="1.0" encoding="UTF-8" standalone="no"?>
<svg
   xmlns:dc="http://purl.org/dc/elements/1.1/"
   xmlns:cc="http://creativecommons.org/ns#"
   xmlns:rdf="http://www.w3.org/1999/02/22-rdf-syntax-ns#"
   xmlns:svg="http://www.w3.org/2000/svg"
   xmlns="http://www.w3.org/2000/svg"
   xmlns:sodipodi="http://sodipodi.sourceforge.net/DTD/sodipodi-0.dtd"
   xmlns:inkscape="http://www.inkscape.org/namespaces/inkscape"
   inkscape:version="1.0 (4035a4fb49, 2020-05-01)"
   sodipodi:docname="settings.svg"
   id="svg6"
   version="1.1"
   width="24"
   viewBox="0 0 24 24"
   height="24">
  <metadata
     id="metadata12">
    <rdf:RDF>
      <cc:Work
         rdf:about="">
        <dc:format>image/svg+xml</dc:format>
        <dc:type
           rdf:resource="http://purl.org/dc/dcmitype/StillImage" />
      </cc:Work>
    </rdf:RDF>
  </metadata>
  <defs
     id="defs10" />
  <sodipodi:namedview
     inkscape:current-layer="svg6"
     inkscape:window-maximized="1"
     inkscape:window-y="0"
     inkscape:window-x="0"
     inkscape:cy="16.78261"
     inkscape:cx="-1.9876165"
     inkscape:zoom="11.6875"
     showgrid="false"
     id="namedview8"
     inkscape:window-height="709"
     inkscape:window-width="1366"
     inkscape:pageshadow="2"
     inkscape:pageopacity="0"
     guidetolerance="10"
     gridtolerance="10"
     objecttolerance="10"
     borderopacity="1"
     bordercolor="#666666"
     pagecolor="#ffffff" />
  <path
     id="path2"
     fill="none"
     d="M0 0h24v24H0V0z" />
  <path
     style="stroke-width:1.01393"
     id="path4"
     d="m 19.640707,12.98 c 0.04112,-0.32 0.07196,-0.64 0.07196,-0.98 0,-0.34 -0.03084,-0.66 -0.07196,-0.98 l 2.169192,-1.65 c 0.19533,-0.15 0.246733,-0.42 0.123366,-0.64 L 19.877159,5.27 C 19.753792,5.05 19.476218,4.97 19.250046,5.05 l -2.559852,1 C 16.155606,5.65 15.579896,5.32 14.952784,5.07 L 14.562124,2.42 C 14.531282,2.18 14.315391,2 14.058378,2 H 9.9461645 C 9.6891509,2 9.4732597,2.18 9.4424181,2.42 L 9.0517579,5.07 C 8.4246454,5.32 7.8489356,5.66 7.3143479,6.05 l -2.5598525,-1 C 4.5180431,4.96 4.2507493,5.05 4.1273829,5.27 L 2.0712765,8.73 C 1.9376296,8.95 1.9993127,9.22 2.1946429,9.37 l 2.1691923,1.65 c -0.041122,0.32 -0.071964,0.65 -0.071964,0.98 0,0.33 0.030842,0.66 0.071964,0.98 l -2.1691923,1.65 c -0.1953302,0.15 -0.2467328,0.42 -0.1233664,0.64 l 2.0561064,3.46 c 0.1233664,0.22 0.4009408,0.3 0.6271125,0.22 l 2.5598525,-1 c 0.5345877,0.4 1.1102975,0.73 1.73741,0.98 l 0.3906602,2.65 C 9.4732597,21.82 9.6891509,22 9.9461645,22 h 4.1122135 c 0.257013,0 0.472904,-0.18 0.503746,-0.42 l 0.39066,-2.65 c 0.627112,-0.25 1.202822,-0.59 1.73741,-0.98 l 2.559852,1 c 0.236453,0.09 0.503746,0 0.627113,-0.22 l 2.056106,-3.46 c 0.123367,-0.22 0.07196,-0.49 -0.123366,-0.64 z m -7.638436,2.52 c -1.984143,0 -3.5981867,-1.57 -3.5981867,-3.5 0,-1.93 1.6140437,-3.5 3.5981867,-3.5 1.984143,0 3.598186,1.57 3.598186,3.5 0,1.93 -1.614043,3.5 -3.598186,3.5 z" />
</svg>
