<?xml version="1.0" encoding="UTF-8" standalone="no"?>
<svg
   xmlns:dc="http://purl.org/dc/elements/1.1/"
   xmlns:cc="http://creativecommons.org/ns#"
   xmlns:rdf="http://www.w3.org/1999/02/22-rdf-syntax-ns#"
   xmlns:svg="http://www.w3.org/2000/svg"
   xmlns="http://www.w3.org/2000/svg"
   xmlns:sodipodi="http://sodipodi.sourceforge.net/DTD/sodipodi-0.dtd"
   xmlns:inkscape="http://www.inkscape.org/namespaces/inkscape"
   inkscape:version="1.0 (4035a4fb49, 2020-05-01)"
   sodipodi:docname="trash.svg"
   id="svg6"
   version="1.1"
   width="24"
   viewBox="0 0 24 24"
   height="24">
  <metadata
     id="metadata12">
    <rdf:RDF>
      <cc:Work
         rdf:about="">
        <dc:format>image/svg+xml</dc:format>
        <dc:type
           rdf:resource="http://purl.org/dc/dcmitype/StillImage" />
      </cc:Work>
    </rdf:RDF>
  </metadata>
  <defs
     id="defs10" />
  <sodipodi:namedview
     inkscape:current-layer="svg6"
     inkscape:window-maximized="1"
     inkscape:window-y="0"
     inkscape:window-x="0"
     inkscape:cy="12.629073"
     inkscape:cx="8.9432368"
     inkscape:zoom="16.528621"
     showgrid="false"
     id="namedview8"
     inkscape:window-height="709"
     inkscape:window-width="1366"
     inkscape:pageshadow="2"
     inkscape:pageopacity="0"
     guidetolerance="10"
     gridtolerance="10"
     objecttolerance="10"
     borderopacity="1"
     bordercolor="#666666"
     pagecolor="#ffffff" />
  <path
     id="path2"
     fill="none"
     d="M0 0h24v24H0V0z" />
  <path
     style="stroke-width:1.11111"
     id="path4"
     d="M 5.3333331,19.777778 C 5.3333331,21 6.3333331,22 7.5555553,22 h 8.8888887 c 1.222222,0 2.222222,-1 2.222222,-2.222222 V 8.6666667 c 0,-1.2222223 -1,-2.2222223 -2.222222,-2.2222223 H 7.5555553 c -1.2222222,0 -2.2222222,1 -2.2222222,2.2222223 z M 18.666666,3.1111111 H 15.888889 L 15.1,2.3222222 C 14.9,2.1222222 14.611111,2 14.322222,2 H 9.677778 C 9.388889,2 9.0999998,2.1222222 8.8999998,2.3222222 L 8.1111109,3.1111111 H 5.3333331 c -0.6111111,0 -1.1111111,0.5 -1.1111111,1.1111111 0,0.6111111 0.5,1.1111111 1.1111111,1.1111111 H 18.666666 c 0.611112,0 1.111112,-0.5 1.111112,-1.1111111 0,-0.6111111 -0.5,-1.1111111 -1.111112,-1.1111111 z" />
</svg>
