<?xml version="1.0" encoding="UTF-8" standalone="no"?>
<svg
   xmlns:dc="http://purl.org/dc/elements/1.1/"
   xmlns:cc="http://creativecommons.org/ns#"
   xmlns:rdf="http://www.w3.org/1999/02/22-rdf-syntax-ns#"
   xmlns:svg="http://www.w3.org/2000/svg"
   xmlns="http://www.w3.org/2000/svg"
   xmlns:sodipodi="http://sodipodi.sourceforge.net/DTD/sodipodi-0.dtd"
   xmlns:inkscape="http://www.inkscape.org/namespaces/inkscape"
   aria-hidden="true"
   focusable="false"
   data-prefix="fas"
   data-icon="user"
   class="svg-inline--fa fa-user fa-w-14"
   role="img"
   viewBox="0 0 24 24"
   version="1.1"
   id="svg4"
   sodipodi:docname="user-solid.svg"
   width="24"
   height="24"
   inkscape:version="1.0.1 (3bc2e813f5, 2020-09-07)">
  <metadata
     id="metadata10">
    <rdf:RDF>
      <cc:Work
         rdf:about="">
        <dc:format>image/svg+xml</dc:format>
        <dc:type
           rdf:resource="http://purl.org/dc/dcmitype/StillImage" />
        <dc:title />
      </cc:Work>
    </rdf:RDF>
  </metadata>
  <defs
     id="defs8" />
  <sodipodi:namedview
     pagecolor="#ffffff"
     bordercolor="#666666"
     borderopacity="1"
     objecttolerance="10"
     gridtolerance="10"
     guidetolerance="10"
     inkscape:pageopacity="0"
     inkscape:pageshadow="2"
     inkscape:window-width="1366"
     inkscape:window-height="709"
     id="namedview6"
     showgrid="false"
     inkscape:zoom="7.2922493"
     inkscape:cx="30.494933"
     inkscape:cy="-7.4215495"
     inkscape:window-x="0"
     inkscape:window-y="0"
     inkscape:window-maximized="1"
     inkscape:current-layer="svg4"
     inkscape:document-rotation="0" />
  <g
     id="g860"
     transform="matrix(1.0102802,0,0,1.0102802,0.08541884,-4.9020806)"
     style="fill:#000000">
    <path
       style="fill:#000000;stroke:#000000;stroke-width:0.00534814"
       d="M 4.0805266,26.377566 C 3.3873104,25.951798 3.1761893,25.507723 3.1096092,24.335323 2.9192694,20.983654 4.6448083,18.620182 7.6591217,18.103852 c 0.8237106,-0.141096 0.9875052,-0.125901 1.8974845,0.176021 1.3920268,0.461862 3.0795948,0.464791 4.4802688,0.0078 0.940204,-0.306773 1.086301,-0.31942 1.959718,-0.169645 2.222646,0.381141 3.864428,1.89986 4.355576,4.029093 0.07466,0.323669 0.137255,1.13151 0.139098,1.795203 0.0036,1.303023 -0.130062,1.711878 -0.74881,2.290149 l -0.366825,0.34283 -7.428439,0.03572 c -7.1746814,0.0345 -7.4434087,0.02653 -7.8666664,-0.233434 z"
       id="path830" />
    <path
       style="fill:#000000;stroke:#000000;stroke-width:0.00534814"
       d="M 10.267759,16.391806 C 8.1023445,15.617653 6.8154794,13.691228 6.9469268,11.420551 7.0246222,10.07841 7.4760009,9.102434 8.4330611,8.2072162 9.4745217,7.2330518 10.443762,6.8363383 11.786745,6.8345416 c 0.945935,-0.00127 1.222836,0.057794 2.010165,0.4287477 3.171493,1.4942607 3.899816,5.4512707 1.454846,7.9042357 -1.287156,1.291365 -3.367178,1.802308 -4.983997,1.224281 z"
       id="path832" />
  </g>
</svg>
