<?xml version="1.0" encoding="UTF-8" standalone="no"?>
<svg
   xmlns:dc="http://purl.org/dc/elements/1.1/"
   xmlns:cc="http://creativecommons.org/ns#"
   xmlns:rdf="http://www.w3.org/1999/02/22-rdf-syntax-ns#"
   xmlns:svg="http://www.w3.org/2000/svg"
   xmlns="http://www.w3.org/2000/svg"
   xmlns:sodipodi="http://sodipodi.sourceforge.net/DTD/sodipodi-0.dtd"
   xmlns:inkscape="http://www.inkscape.org/namespaces/inkscape"
   inkscape:version="1.0 (4035a4fb49, 2020-05-01)"
   sodipodi:docname="user-sigaa.svg"
   id="svg6"
   version="1.1"
   width="24"
   viewBox="0 0 24 24"
   height="24">
  <metadata
     id="metadata12">
    <rdf:RDF>
      <cc:Work
         rdf:about="">
        <dc:format>image/svg+xml</dc:format>
        <dc:type
           rdf:resource="http://purl.org/dc/dcmitype/StillImage" />
      </cc:Work>
    </rdf:RDF>
  </metadata>
  <defs
     id="defs10" />
  <sodipodi:namedview
     inkscape:current-layer="svg6"
     inkscape:window-maximized="1"
     inkscape:window-y="0"
     inkscape:window-x="0"
     inkscape:cy="12.788556"
     inkscape:cx="12.380988"
     inkscape:zoom="16.528621"
     showgrid="false"
     id="namedview8"
     inkscape:window-height="709"
     inkscape:window-width="1366"
     inkscape:pageshadow="2"
     inkscape:pageopacity="0"
     guidetolerance="10"
     gridtolerance="10"
     objecttolerance="10"
     borderopacity="1"
     bordercolor="#666666"
     pagecolor="#ffffff" />
  <path
     id="path2"
     fill="none"
     d="M0 0h24v24H0V0z" />
  <path
     style="stroke-width:0.956595"
     id="path4"
     d="m 4.7812986,13.125195 v 2.68803 c 0,0.698314 0.3826378,1.348799 0.9948583,1.683607 l 4.7829721,2.611503 c 0.573957,0.315676 1.262705,0.315676 1.836662,0 l 4.782973,-2.611503 c 0.61222,-0.334808 0.994858,-0.985293 0.994858,-1.683607 v -2.68803 l -5.777831,3.156762 c -0.573957,0.315676 -1.262705,0.315676 -1.836662,0 z M 10.559129,3.8844912 2.4950377,8.284826 c -0.6600503,0.3635059 -0.6600503,1.3201004 0,1.6836064 l 8.0640913,4.4003356 c 0.573957,0.315676 1.262705,0.315676 1.836662,0 l 7.69102,-4.199451 v 5.653474 c 0,0.526127 0.430467,0.956595 0.956594,0.956595 C 21.569532,16.779386 22,16.348918 22,15.822791 V 9.6910199 C 22,9.33708 21.808681,9.0214038 21.502571,8.8492168 l -9.10678,-4.9647256 c -0.573957,-0.3061103 -1.262705,-0.3061103 -1.836662,0 z" />
</svg>
