<?xml version="1.0" encoding="UTF-8" standalone="no"?>
<!-- Created with Inkscape (http://www.inkscape.org/) -->

<svg
   xmlns:dc="http://purl.org/dc/elements/1.1/"
   xmlns:cc="http://creativecommons.org/ns#"
   xmlns:rdf="http://www.w3.org/1999/02/22-rdf-syntax-ns#"
   xmlns:svg="http://www.w3.org/2000/svg"
   xmlns="http://www.w3.org/2000/svg"
   xmlns:sodipodi="http://sodipodi.sourceforge.net/DTD/sodipodi-0.dtd"
   xmlns:inkscape="http://www.inkscape.org/namespaces/inkscape"
   version="1.1"
   id="svg2"
   xml:space="preserve"
   width="24"
   height="24"
   viewBox="0 0 24.000001 24.000001"
   sodipodi:docname="facebook.svg"
   inkscape:version="0.92.4 5da689c313, 2019-01-14"><metadata
     id="metadata8"><rdf:RDF><cc:Work
         rdf:about=""><dc:format>image/svg+xml</dc:format><dc:type
           rdf:resource="http://purl.org/dc/dcmitype/StillImage" /><dc:title></dc:title></cc:Work></rdf:RDF></metadata><defs
     id="defs6" /><sodipodi:namedview
     pagecolor="#ffffff"
     bordercolor="#666666"
     borderopacity="1"
     objecttolerance="10"
     gridtolerance="10"
     guidetolerance="10"
     inkscape:pageopacity="0"
     inkscape:pageshadow="2"
     inkscape:window-width="1326"
     inkscape:window-height="739"
     id="namedview4"
     showgrid="false"
     inkscape:zoom="0.97779614"
     inkscape:cx="111.56383"
     inkscape:cy="187.61635"
     inkscape:window-x="40"
     inkscape:window-y="0"
     inkscape:window-maximized="1"
     inkscape:current-layer="g10" /><g
     id="g10"
     inkscape:groupmode="layer"
     inkscape:label="ink_ext_XXXXXX"
     transform="matrix(1.3333333,0,0,-1.3333333,0,24.00005)"><path
       inkscape:connector-curvature="0"
       id="path14"
       style="fill:#1877f2;fill-opacity:1;fill-rule:nonzero;stroke:none;stroke-width:0.00146931"
       d="M 16.5,8.9542025 C 16.5,13.121655 13.142139,16.500036 9.000001,16.500036 4.857861,16.500036 1.5,13.121655 1.5,8.9542025 c 0,-3.766344 2.742642,-6.888077 6.328125,-7.454165 v 5.272947 H 5.923828 v 2.181218 h 1.904297 v 1.6624425 c 0,1.891173 1.119698,2.9358 2.832862,2.9358 0.820561,0 1.678857,-0.147379 1.678857,-0.147379 v -1.856983 h -0.945733 c -0.931684,0 -1.222235,-0.581663 -1.222235,-1.178402 V 8.9542025 h 2.080078 l -0.33252,-2.181218 H 10.171876 V 1.5000375 C 13.757359,2.0661255 16.5,5.1878585 16.5,8.9542025" /></g></svg>