<?xml version="1.0" encoding="UTF-8" standalone="no"?>
<svg
   xmlns:dc="http://purl.org/dc/elements/1.1/"
   xmlns:cc="http://creativecommons.org/ns#"
   xmlns:rdf="http://www.w3.org/1999/02/22-rdf-syntax-ns#"
   xmlns:svg="http://www.w3.org/2000/svg"
   xmlns="http://www.w3.org/2000/svg"
   xmlns:sodipodi="http://sodipodi.sourceforge.net/DTD/sodipodi-0.dtd"
   xmlns:inkscape="http://www.inkscape.org/namespaces/inkscape"
   aria-hidden="true"
   focusable="false"
   data-prefix="fab"
   data-icon="github"
   class="svg-inline--fa fa-github fa-w-16"
   role="img"
   viewBox="0 0 24 24"
   version="1.1"
   id="svg919"
   sodipodi:docname="github.svg"
   width="24"
   height="24"
   inkscape:version="0.92.4 5da689c313, 2019-01-14">
  <metadata
     id="metadata925">
    <rdf:RDF>
      <cc:Work
         rdf:about="">
        <dc:format>image/svg+xml</dc:format>
        <dc:type
           rdf:resource="http://purl.org/dc/dcmitype/StillImage" />
        <dc:title></dc:title>
      </cc:Work>
    </rdf:RDF>
  </metadata>
  <defs
     id="defs923" />
  <sodipodi:namedview
     pagecolor="#ffffff"
     bordercolor="#666666"
     borderopacity="1"
     objecttolerance="10"
     gridtolerance="10"
     guidetolerance="10"
     inkscape:pageopacity="0"
     inkscape:pageshadow="2"
     inkscape:window-width="1326"
     inkscape:window-height="739"
     id="namedview921"
     showgrid="false"
     inkscape:zoom="0.4609375"
     inkscape:cx="-14.508475"
     inkscape:cy="256"
     inkscape:window-x="40"
     inkscape:window-y="0"
     inkscape:window-maximized="1"
     inkscape:current-layer="svg919" />
  <path
     d="m 8.689516,18.10398 c 0,0.0827 -0.09274,0.14888 -0.209678,0.14888 -0.133064,0.0124 -0.225806,-0.0538 -0.225806,-0.14888 0,-0.0827 0.09274,-0.14888 0.209678,-0.14888 0.120968,-0.0124 0.225806,0.0538 0.225806,0.14888 z m -1.254032,-0.1861 c -0.02823,0.0827 0.05242,0.17783 0.173387,0.20265 0.104839,0.0414 0.225807,0 0.25,-0.0827 0.02419,-0.0827 -0.05242,-0.17783 -0.173387,-0.21505 -0.104839,-0.0289 -0.221774,0.0124 -0.25,0.0951 z m 1.782258,-0.0703 c -0.116936,0.029 -0.19758,0.10752 -0.185484,0.20264 0.0121,0.0827 0.116936,0.13648 0.237904,0.10753 0.116935,-0.029 0.19758,-0.10753 0.185483,-0.19024 -0.0121,-0.0786 -0.120967,-0.13234 -0.237903,-0.11993 z M 11.870968,2.00001 C 6.278226,2.00001 2,6.35478 2,12.09084 c 0,4.58637 2.814516,8.51104 6.834678,9.89232 0.516128,0.0951 0.69758,-0.23159 0.69758,-0.5004 0,-0.25641 -0.0121,-1.67078 -0.0121,-2.53925 0,0 -2.822581,0.62034 -3.415324,-1.23241 0,0 -0.459676,-1.20345 -1.120967,-1.51362 0,0 -0.923387,-0.64929 0.06452,-0.63688 0,0 1.004032,0.0827 1.556451,1.06698 0.883065,1.59634 2.362904,1.13729 2.939516,0.86434 0.09274,-0.6617 0.35484,-1.12075 0.645162,-1.3937 C 7.935484,15.84182 5.66129,15.50684 5.66129,11.5284 5.66129,10.39112 5.967742,9.82041 6.612903,9.09254 6.508065,8.82373 6.165322,7.71539 6.717742,6.28448 7.560484,6.01567 9.5,7.40109 9.5,7.40109 10.306452,7.1695 11.173387,7.04956 12.032258,7.04956 c 0.858871,0 1.725807,0.11994 2.532258,0.35153 0,0 1.939516,-1.38956 2.782258,-1.11661 0.55242,1.43505 0.209678,2.53925 0.104839,2.80806 0.645161,0.732 1.040322,1.30271 1.040322,2.43586 0,3.99084 -2.375,4.30928 -4.629032,4.56982 0.370968,0.32672 0.685484,0.94705 0.685484,1.91892 0,1.39369 -0.0121,3.11823 -0.0121,3.45735 0,0.26881 0.185484,0.59552 0.697581,0.5004 C 19.266129,20.60188 22,16.67721 22,12.09084 22,6.35478 17.46371,2.00001 11.870968,2.00001 Z M 5.919354,16.26365 c -0.05242,0.0413 -0.04032,0.13647 0.02823,0.21505 0.06452,0.0662 0.157257,0.0951 0.209677,0.0414 0.05242,-0.0414 0.04032,-0.13647 -0.02823,-0.21505 -0.06452,-0.0662 -0.157258,-0.0951 -0.209678,-0.0413 z M 5.483871,15.92867 c -0.02823,0.0538 0.0121,0.11993 0.09274,0.16128 0.06452,0.0414 0.145161,0.029 0.173387,-0.029 0.02823,-0.0538 -0.0121,-0.11993 -0.09274,-0.16128 -0.08065,-0.0248 -0.145161,-0.0124 -0.173387,0.0289 z m 1.306451,1.47226 c -0.06452,0.0538 -0.04032,0.17783 0.05242,0.25641 0.09274,0.0951 0.209677,0.10753 0.262096,0.0414 0.05242,-0.0538 0.02823,-0.17783 -0.05242,-0.25641 -0.08871,-0.0951 -0.209677,-0.10753 -0.262096,-0.0414 z M 6.330645,16.793 c -0.06452,0.0414 -0.06452,0.14888 0,0.244 0.06452,0.0951 0.173387,0.13648 0.225806,0.0951 0.06452,-0.0538 0.06452,-0.16129 0,-0.2564 C 6.500001,16.7806 6.395162,16.73922 6.330645,16.793 Z"
     id="path917"
     inkscape:connector-curvature="0"
     style="fill:currentColor;stroke-width:0.04083595" />
</svg>
