<?xml version="1.0" encoding="UTF-8" standalone="no"?>
<svg
   xmlns:dc="http://purl.org/dc/elements/1.1/"
   xmlns:cc="http://creativecommons.org/ns#"
   xmlns:rdf="http://www.w3.org/1999/02/22-rdf-syntax-ns#"
   xmlns:svg="http://www.w3.org/2000/svg"
   xmlns="http://www.w3.org/2000/svg"
   xmlns:sodipodi="http://sodipodi.sourceforge.net/DTD/sodipodi-0.dtd"
   xmlns:inkscape="http://www.inkscape.org/namespaces/inkscape"
   aria-hidden="true"
   focusable="false"
   data-prefix="fab"
   data-icon="gitlab"
   class="svg-inline--fa fa-gitlab fa-w-16"
   role="img"
   viewBox="0 0 24 24"
   version="1.1"
   id="svg1558"
   sodipodi:docname="gitlab.svg"
   width="24"
   height="24"
   inkscape:version="0.92.4 5da689c313, 2019-01-14">
  <metadata
     id="metadata1564">
    <rdf:RDF>
      <cc:Work
         rdf:about="">
        <dc:format>image/svg+xml</dc:format>
        <dc:type
           rdf:resource="http://purl.org/dc/dcmitype/StillImage" />
        <dc:title />
      </cc:Work>
    </rdf:RDF>
  </metadata>
  <defs
     id="defs1562" />
  <sodipodi:namedview
     pagecolor="#ffffff"
     bordercolor="#666666"
     borderopacity="1"
     objecttolerance="10"
     gridtolerance="10"
     guidetolerance="10"
     inkscape:pageopacity="0"
     inkscape:pageshadow="2"
     inkscape:window-width="1326"
     inkscape:window-height="739"
     id="namedview1560"
     showgrid="false"
     inkscape:zoom="10.429825"
     inkscape:cx="10.465069"
     inkscape:cy="11.313709"
     inkscape:window-x="40"
     inkscape:window-y="0"
     inkscape:window-maximized="1"
     inkscape:current-layer="svg1558" />
  <path
     d="m 6.1107378,3.1891106 c -0.121084,-0.34763 -0.613228,-0.34763 -0.738217,0 L 3.1656828,10.01663 h 5.155798 c -0.0039,0 -2.210743,-6.8275194 -2.210743,-6.8275194 z M 2.0368758,13.45383 c -0.101553,0.31247 0.01172,0.6601 0.27732,0.8593 L 11.996939,21.5 3.1617778,10.01663 Z M 8.3175748,10.01663 12.000846,21.5 15.684116,10.01663 Z M 21.964814,13.45383 20.839913,10.01663 12.000846,21.5 21.683589,14.31313 c 0.269507,-0.1992 0.378872,-0.54683 0.281225,-0.8593 z M 18.629169,3.1891106 c -0.121083,-0.34763 -0.613227,-0.34763 -0.738216,0 L 15.680209,10.01663 h 5.155798 z"
     id="path1556"
     inkscape:connector-curvature="0"
     style="fill:currentColor;stroke-width:0.03905907" />
</svg>
