<?xml version="1.0" encoding="UTF-8" standalone="no"?>
<svg
   xmlns:dc="http://purl.org/dc/elements/1.1/"
   xmlns:cc="http://creativecommons.org/ns#"
   xmlns:rdf="http://www.w3.org/1999/02/22-rdf-syntax-ns#"
   xmlns:svg="http://www.w3.org/2000/svg"
   xmlns="http://www.w3.org/2000/svg"
   xmlns:sodipodi="http://sodipodi.sourceforge.net/DTD/sodipodi-0.dtd"
   xmlns:inkscape="http://www.inkscape.org/namespaces/inkscape"
   height="24"
   viewBox="0 0 24 24"
   width="24"
   version="1.1"
   id="svg6"
   sodipodi:docname="phone.svg"
   inkscape:version="1.0.1 (3bc2e813f5, 2020-09-07)">
  <metadata
     id="metadata12">
    <rdf:RDF>
      <cc:Work
         rdf:about="">
        <dc:format>image/svg+xml</dc:format>
        <dc:type
           rdf:resource="http://purl.org/dc/dcmitype/StillImage" />
      </cc:Work>
    </rdf:RDF>
  </metadata>
  <defs
     id="defs10" />
  <sodipodi:namedview
     pagecolor="#ffffff"
     bordercolor="#666666"
     borderopacity="1"
     objecttolerance="10"
     gridtolerance="10"
     guidetolerance="10"
     inkscape:pageopacity="0"
     inkscape:pageshadow="2"
     inkscape:window-width="1366"
     inkscape:window-height="709"
     id="namedview8"
     showgrid="false"
     inkscape:zoom="23.375"
     inkscape:cx="11.315508"
     inkscape:cy="12"
     inkscape:window-x="0"
     inkscape:window-y="0"
     inkscape:window-maximized="1"
     inkscape:current-layer="svg6" />
  <path
     d="M0 0h24v24H0V0z"
     fill="none"
     id="path2" />
  <path
     d="M 21.066718,16.648562 18.238804,16.32569 C 17.55966,16.24775 16.891649,16.481559 16.412907,16.9603 L 14.36434,19.008868 C 11.213553,17.405641 8.6305768,14.833798 7.02735,11.671878 L 9.0870512,9.6121772 C 9.5657925,9.1334359 9.7995964,8.4654247 9.7216618,7.78628 L 9.3987897,4.980633 C 9.2651875,3.8561475 8.3188383,3.01 7.1832193,3.01 H 5.2571204 c -1.2580878,0 -2.3046386,1.0465509 -2.226704,2.3046386 0.5900765,9.5080254 8.1942706,17.1010864 17.6911626,17.6911634 1.258088,0.07793 2.304639,-0.968617 2.304639,-2.226704 v -1.926099 c 0.01113,-1.124486 -0.835014,-2.070835 -1.9595,-2.204437 z"
     id="path4"
     style="stroke-width:1.11335" />
</svg>
