<?xml version="1.0" encoding="UTF-8" standalone="no"?>
<svg
   xmlns:dc="http://purl.org/dc/elements/1.1/"
   xmlns:cc="http://creativecommons.org/ns#"
   xmlns:rdf="http://www.w3.org/1999/02/22-rdf-syntax-ns#"
   xmlns:svg="http://www.w3.org/2000/svg"
   xmlns="http://www.w3.org/2000/svg"
   xmlns:sodipodi="http://sodipodi.sourceforge.net/DTD/sodipodi-0.dtd"
   xmlns:inkscape="http://www.inkscape.org/namespaces/inkscape"
   aria-hidden="true"
   focusable="false"
   data-prefix="fab"
   data-icon="telegram"
   class="svg-inline--fa fa-telegram fa-w-16"
   role="img"
   viewBox="0 0 24 24"
   version="1.1"
   id="svg2212"
   sodipodi:docname="telegram.svg"
   width="24"
   height="24"
   inkscape:version="0.92.4 5da689c313, 2019-01-14">
  <metadata
     id="metadata2218">
    <rdf:RDF>
      <cc:Work
         rdf:about="">
        <dc:format>image/svg+xml</dc:format>
        <dc:type
           rdf:resource="http://purl.org/dc/dcmitype/StillImage" />
        <dc:title></dc:title>
      </cc:Work>
    </rdf:RDF>
  </metadata>
  <defs
     id="defs2216" />
  <sodipodi:namedview
     pagecolor="#ffffff"
     bordercolor="#666666"
     borderopacity="1"
     objecttolerance="10"
     gridtolerance="10"
     guidetolerance="10"
     inkscape:pageopacity="0"
     inkscape:pageshadow="2"
     inkscape:window-width="1326"
     inkscape:window-height="739"
     id="namedview2214"
     showgrid="false"
     inkscape:zoom="0.4609375"
     inkscape:cx="-14.508475"
     inkscape:cy="256"
     inkscape:window-x="40"
     inkscape:window-y="0"
     inkscape:window-maximized="1"
     inkscape:current-layer="svg2212" />
  <path
     d="M 12,2 C 6.475806,2 2,6.47581 2,12 2,17.52419 6.475806,22 12,22 17.524194,22 22,17.52419 22,12 22,6.47581 17.524194,2 12,2 Z m 4.91129,6.85081 -1.641128,7.73387 c -0.120968,0.54838 -0.447581,0.68145 -0.903227,0.42338 l -2.5,-1.84274 -1.205645,1.16129 c -0.133064,0.13307 -0.245968,0.24597 -0.504032,0.24597 l 0.17742,-2.54435 4.633064,-4.18549 C 15.169355,9.66532 14.923392,9.56452 14.657258,9.74194 L 8.931451,13.34677 6.46371,12.57661 C 5.927419,12.40726 5.915322,12.04032 6.576613,11.78226 l 9.641129,-3.71774 c 0.44758,-0.16129 0.83871,0.10887 0.693548,0.78629 z"
     id="path2210"
     inkscape:connector-curvature="0"
     style="fill:currentColor;stroke-width:0.04032258" />
</svg>
