<?xml version="1.0" encoding="UTF-8" standalone="no"?>
<svg
   xmlns:dc="http://purl.org/dc/elements/1.1/"
   xmlns:cc="http://creativecommons.org/ns#"
   xmlns:rdf="http://www.w3.org/1999/02/22-rdf-syntax-ns#"
   xmlns:svg="http://www.w3.org/2000/svg"
   xmlns="http://www.w3.org/2000/svg"
   xmlns:sodipodi="http://sodipodi.sourceforge.net/DTD/sodipodi-0.dtd"
   xmlns:inkscape="http://www.inkscape.org/namespaces/inkscape"
   id="Logo_FIXED"
   data-name="Logo — FIXED"
   viewBox="0 0 24 24"
   version="1.1"
   sodipodi:docname="twitter.svg"
   inkscape:version="0.92.4 5da689c313, 2019-01-14"
   width="24"
   height="24">
  <metadata
     id="metadata15">
    <rdf:RDF>
      <cc:Work
         rdf:about="">
        <dc:format>image/svg+xml</dc:format>
        <dc:type
           rdf:resource="http://purl.org/dc/dcmitype/StillImage" />
        <dc:title>Twitter_Logo_Blue</dc:title>
      </cc:Work>
    </rdf:RDF>
  </metadata>
  <sodipodi:namedview
     pagecolor="#ffffff"
     bordercolor="#666666"
     borderopacity="1"
     objecttolerance="10"
     gridtolerance="10"
     guidetolerance="10"
     inkscape:pageopacity="0"
     inkscape:pageshadow="2"
     inkscape:window-width="1326"
     inkscape:window-height="739"
     id="namedview13"
     showgrid="false"
     inkscape:zoom="9.44"
     inkscape:cx="27.884757"
     inkscape:cy="17.238884"
     inkscape:window-x="40"
     inkscape:window-y="0"
     inkscape:window-maximized="1"
     inkscape:current-layer="Logo_FIXED" />
  <defs
     id="defs4">
    <style
       id="style2">.cls-1{fill:none;}.cls-2{fill:#1da1f2;}</style>
  </defs>
  <title
     id="title6">Twitter_Logo_Blue</title>
  <rect
     class="cls-1"
     width="400"
     height="400"
     id="rect8"
     x="0"
     y="-376"
     style="fill:none" />
  <path
     class="cls-2"
     d="m 8.2896,19.7 c 7.5472,0 11.6752,-6.2528 11.6752,-11.6752 0,-0.1776 0,-0.3544 -0.012,-0.5304 A 8.3488,8.3488 0 0 0 22,5.3704 8.1904,8.1904 0 0 1 19.6432,6.016 4.1176,4.1176 0 0 0 21.4472,3.7464 8.2232,8.2232 0 0 1 18.8416,4.7424 4.1072,4.1072 0 0 0 11.8488,8.4848 11.6496,11.6496 0 0 1 3.392,4.1976 4.1064,4.1064 0 0 0 4.6624,9.6752 4.0728,4.0728 0 0 1 2.8,9.1616 c 0,0.0168 0,0.0344 0,0.052 A 4.1048,4.1048 0 0 0 6.092,13.236 4.0968,4.0968 0 0 1 4.2392,13.3064 4.108,4.108 0 0 0 8.0728,16.156 8.2336,8.2336 0 0 1 2.9768,17.916 8.3528,8.3528 0 0 1 2,17.8568 a 11.6168,11.6168 0 0 0 6.2896,1.84"
     id="path10"
     inkscape:connector-curvature="0"
     style="fill:#1da1f2;stroke-width:0.08" />
</svg>
